<?xml version="1.0" encoding="UTF-8" standalone="no"?>
<!-- Created with Inkscape (http://www.inkscape.org/) -->
<svg xmlns:rdf="http://www.w3.org/1999/02/22-rdf-syntax-ns#" xmlns="http://www.w3.org/2000/svg" xmlns:cc="http://web.resource.org/cc/" xmlns:dc="http://purl.org/dc/elements/1.1/" xmlns:svg="http://www.w3.org/2000/svg" xmlns:inkscape="http://www.inkscape.org/namespaces/inkscape" xmlns:sodipodi="http://sodipodi.sourceforge.net/DTD/sodipodi-0.dtd" xmlns:ns1="http://sozi.baierouge.fr" xmlns:xlink="http://www.w3.org/1999/xlink" id="svg2" viewBox="0 0 296.08 215.05" version="1.0" inkscape:version="0.91 r13725">
  <g id="layer1" transform="translate(-163.81 -423.1)">
    <path id="path3175" style="fill-rule:evenodd;fill:#000000" d="m359.3 423.12c-15.58-0.42-27.41 4.83-38.49 14.72-7.68-6.21-21.19-5.46-31.46-6.93-42.46-4.05-87.74 12.48-109.41 49.22-9.26 14.34-18.08 31.24-15.75 49.31 1.58 8.03 12.14 9.07 17.44 4.68 1.6-0.31 3.42-5.12 3.83-1.62 4.17 12.11 13 22.23 19.36 33.25 3.24 19.64-8.47 38.68-2.13 58.16 7.31 13.23 24.5 15.1 37.78 13.87 10.6-0.26 24.27 1.53 31.32-7.69 5.33-10.45-4.79-20.86-7.49-30.9-1.71-5.28-3.21-13.26 1.52-16.75 4.97 0.74 8.82 5.34 14.13 5.31 9.89 2.01 19.92-1.37 29.28-1.91 7.32 11.32 0.62 24.13 0.2 36-0.07 7.43 6.1 13.52 13.35 14.5 12.3 3.08 25.08 1.48 37.34 0.57 8.99-1.96 15.52-11.97 11.28-21.07-3.78-11.26-9.12-23.41-4.71-34.81 2.35-7.75 9.57-12.18 16.78-14.59 1.72-0.94 7.84-5.39 7.35-3.69-8.8 9.85-20.62 21.58-16.82 36.66 2.5 10.74 8.35 22.17 18.4 27.68 13.9 6.04 32.25-6.49 28.32-21.78-1.27-4.53-5.78-7.31-9.15-9.72 1.51-5.96 8.69-8.44 12.75-12.53 14.18-10.3 26.96-23.54 31.47-41.09 10.3-33.36 0.89-73.53-24.25-99.66-15.56-13.63-36.94-15.36-56.11-18.4-5.37-0.58-10.77-0.9-16.13-0.79z"/>
    <path id="path2383" style="fill-rule:evenodd;fill:#b0b0c7" d="m429.22 568.26c8.77-7.55 24.05-23.92 22.45-57.92-1.61-33.99-20.72-65.47-37.3-69.87-16.57-4.41-83.77-27.7-94.01 22.03-10.25 49.73 31.45 66.1 42.06 64.21s21.32-28.33 21.32-28.33-3.66 28.96-16.74 32.11c-13.07 3.15-46.04-1.89-55.32-38.4s9.76-46.59-2.98-49.73c-16.97-4.2-62.17-10.08-97.46 15.73s-46.16 75.55-36.96 70.51c9.21-5.04 12.84-21.4 15.29-9.44 2.46 11.96 12.16 30.84 20.7 38.4 8.54 7.55-3.76 53.51-1.49 61.69 2.28 8.19 15.62 10.7 25.69 10.7s32.76 0.63 31.18-6.29c-1.59-6.93-9.74-19.52-10.99-32.74-1.26-13.22 7.98-17.62 11.78-16.99 3.81 0.63 5.94 6.07 21.71 6.29 15.11 0.21 14.9-4.41 21.22-3.78 6.33 0.63 10.55 10.08 11.08 21.41 0.54 11.33-3.42 20.77-3.12 27.07 0.29 6.29 45.68 7.55 47.21 0 1.53-7.56-6.5-17.63-6.94-27.07-0.45-9.45-0.08-28.33 11.64-33.37 11.72-5.03 23.78-16.36 31.69-8.81s-19.67 23.29-19.65 37.14c0.03 13.85 12.67 28.33 15.82 28.33s16.19-3.78 16.46-11.33c0.27-7.56-10.31-5.04-10.73-13.85-0.41-8.81 17.26-19.83 26.39-27.7z"/>
    <path id="path3195" style="fill:#000000" d="m419.26 492.72a6.2952 6.2952 0 1 1 -12.59 0 6.2952 6.2952 0 1 1 12.59 0z" transform="translate(8,11)"/>
    <path id="path3217" style="fill-rule:evenodd;stroke:#000000;stroke-width:6;fill:#ffffff" d="m436 553.36c4.5-3.5-7-11-11.5-18s-13.5 4.5-11 11.5 17 9 22.5 6.5z"/>
    <path id="path3219" style="fill-rule:evenodd;stroke:#000000;stroke-width:6;fill:#ffffff" d="m254.85 633.6c7.73-1.06 17.19-2.83 16.96-7.78-0.24-4.95-6.41-15.91-6.41-15.91s-5.03-1.77-9.06 2.83c-4.02 4.6-4.42 18.74-1.49 20.86z"/>
    <path id="path3221" style="fill-rule:evenodd;stroke:#000000;stroke-width:6;fill:#ffffff" d="m354.55 634.11c7.73-1.06 17.19-2.83 16.96-7.78s-6.41-15.91-6.41-15.91-5.03-1.77-9.06 2.83c-4.02 4.6-4.42 18.74-1.49 20.86z"/>
  </g>
  <metadata>
    <rdf:RDF>
      <cc:Work>
        <dc:format>image/svg+xml</dc:format>
        <dc:type rdf:resource="http://purl.org/dc/dcmitype/StillImage"/>
        <cc:license rdf:resource="http://creativecommons.org/licenses/publicdomain/"/>
        <dc:publisher>
          <cc:Agent rdf:about="http://openclipart.org/">
            <dc:title>Openclipart</dc:title>
          </cc:Agent>
        </dc:publisher>
        <dc:title>2D cartoon elephant</dc:title>
        <dc:date>2008-06-28T11:58:02</dc:date>
        <dc:description>A simple cartoon elephant</dc:description>
        <dc:source>https://openclipart.org/detail/17482/2d-cartoon-elephant-by-lemmling</dc:source>
        <dc:creator>
          <cc:Agent>
            <dc:title>lemmling</dc:title>
          </cc:Agent>
        </dc:creator>
        <dc:subject>
          <rdf:Bag>
            <rdf:li>animal</rdf:li>
            <rdf:li>cartoon</rdf:li>
            <rdf:li>elephant</rdf:li>
            <rdf:li>outline</rdf:li>
          </rdf:Bag>
        </dc:subject>
      </cc:Work>
      <cc:License rdf:about="http://creativecommons.org/licenses/publicdomain/">
        <cc:permits rdf:resource="http://creativecommons.org/ns#Reproduction"/>
        <cc:permits rdf:resource="http://creativecommons.org/ns#Distribution"/>
        <cc:permits rdf:resource="http://creativecommons.org/ns#DerivativeWorks"/>
      </cc:License>
    </rdf:RDF>
  </metadata>
</svg>
