<svg xmlns="http://www.w3.org/2000/svg" width="81" height="81" fill="none"><path fill="url(#a)" fill-rule="evenodd" d="M6 6.476C6 2.9 8.9 0 12.476 0h19.429c3.576 0 6.476 2.9 6.476 6.476v19.429c0 3.576-2.9 6.476-6.476 6.476H12.476A6.476 6.476 0 0 1 6 25.905V6.476Zm0 36.381c0-3.577 2.9-6.476 6.476-6.476h19.429c3.576 0 6.476 2.9 6.476 6.476v19.429c0 3.576-2.9 6.476-6.476 6.476H12.476A6.476 6.476 0 0 1 6 62.286V42.857Zm36-36.38C42 2.898 44.9 0 48.476 0h19.429c3.576 0 6.476 2.9 6.476 6.476v19.429c0 3.576-2.9 6.476-6.476 6.476H48.476A6.476 6.476 0 0 1 42 25.905V6.476Zm0 36.38c0-3.577 2.9-6.476 6.476-6.476h19.429c3.576 0 6.476 2.9 6.476 6.476v19.429c0 3.576-2.9 6.476-6.476 6.476H48.476A6.476 6.476 0 0 1 42 62.286V42.857Z" clip-rule="evenodd"/><g clip-path="url(#b)"><path fill="#1A255B" d="M63.956 47.04c-.354.028-.611.237-.856.466-1.187 1.11-2.384 2.208-3.554 3.335-.415.398-.842.68-1.43.77-.787.122-1.568.303-2.334.519-.6.167-.962-.056-1.267-.537-.843-1.33-1.683-2.662-2.564-3.966-.428-.632-.947-1.2-1.541-1.747.163 1.185.324 2.37.49 3.554.067.48.098.972.234 1.433.34 1.168-.267 2.06-.8 2.976-.248.426-.34.814-.244 1.353.432 2.407 1.273 4.667 2.265 6.881.276.615.575 1.215.685 1.886-.097.219-.26.27-.476.194-.666-.65-.892-1.54-1.219-2.357-1.15-2.878-2.01-5.842-2.462-8.917-.06-.405-.124-.812-.413-1.142-.432-.493-.623-.48-.946.088-.048.083-.084.174-.13.26-.966 1.122-.88 2.385-.506 3.695.896 3.14 2.458 5.937 4.399 8.54.182.245.467.45.349.826-.132.175-.282.271-.497.128-.607-.36-.928-.975-1.342-1.505-1.305-1.667-2.404-3.454-3.167-5.44-.116-.3-.197-.634-.527-.943-1.15 4.57-1.622 9.152-2.102 13.882.49-.324.847-.562 1.206-.796 2.978-1.954 5.752-.032 6.22 2.988.525 3.392-1.512 6.2-5.096 7.235-3.115.899-6.823-.256-8.71-2.884-1.078-1.504-1.615-3.287-1.904-5.123-.341-2.173-.85-4.32-1.06-6.512-.206-2.17-.373-4.344-.561-6.515-.038-.434-.085-.867-.13-1.324-.288.108-.33.367-.44.56-1.158 2.044-2.413 4.024-3.861 5.88a17.515 17.515 0 0 1-3.428 3.336 3.708 3.708 0 0 1-.632.353c-.165.077-.327.197-.527.019-.212-.189-.16-.389-.088-.594.127-.368.304-.711.554-1.013.147-.126.253-.045.353.07.211.423.426.24.667.016 1.07-.997 1.95-2.151 2.786-3.342.098-.139.182-.286.294-.415 1.952-2.72 3.162-5.759 3.9-9.003.067-.295.057-.58-.083-.848-.245-.474-.411-.982-.657-1.456-.17-.237-.175-.692-.608-.593-.402.092-.654.417-.74.822-.174.804-.304 1.615-.466 2.42-.468 2.333-1.236 4.57-2.098 6.78-.113.288-.189.609-.5.773-.21-.056-.206-.195-.135-.358.712-2.092 1.5-4.158 1.954-6.33.25-1.206.355-2.385-.634-3.36-.26-.255-.315-.575-.271-.934.092-.768.124-1.544.248-2.306.164-1.001-.112-1.885-.578-2.836l-3.758 5.501c-.406.595-.95.766-1.633.515-.136-.05-.269-.106-.403-.16-.203-.275-.54-.283-.817-.41-.223-.101-.342-.215-.05-.383.66-.058 1.273.224 1.924.27.392.03.636-.064.826-.41.37-.675.778-1.332 1.176-1.993.617-1.007 1.209-2.032 1.836-3.033.267-.425.324-.84.114-1.3-.412-.9-.755-1.828-1.197-2.712-.227-.594-.499-1.17-.743-1.756-.468-1.003-.886-2.027-1.328-3.041-.117-.269-.246-.52-.461-.724a.965.965 0 0 1-.168-.456c-.082-1.306.11-2.6.187-3.898.051-.865.015-1.737.124-2.598.07-.335.207-.66.438-.9.487-.505.356-.955.038-1.49-.578-.974-1.263-1.885-1.734-2.92-.076-.571.37-.914.592-1.355.616-.887 1.205-1.795 1.85-2.662.28-.377.18-.533-.245-.619-.47-.095-.938-.215-1.394-.366-.47-.183-.97-.266-1.448-.42-.904-.234-1.795-.511-2.707-.717-.539-.14-1.067-.323-1.613-.442-.505-.122-.991-.314-1.508-.392-.925-.226-1.86-.424-2.75-.774-.097-.073-.176-.155-.13-.292.332-.45.825-.647 1.319-.843.103.07.207.136.327.176 3.812.297 7.63.149 11.443.182.121 0 .241-.009.355-.053.23-.072.43-.248.693-.218.453.324.126.623-.03.93-.505.53-.72 1.177-.82 1.897-.247 1.8-.58 3.587-.802 5.392-.061.5-.013.955.238 1.401.261.464.553.914.785 1.394.426.74.34 1.45-.055 2.186-.352.657-.686 1.328-1.093 1.947-.378.574-.486 1.131-.252 1.766.084 1.436.197 2.87.397 4.293.136.464.578.688.832 1.06.42.627 1.01 1.092 1.531 1.622.669.693 1.396 1.334 1.98 2.018.023-.877.034-1.88-.015-2.885a.509.509 0 0 1 .024-.204c.041-.059.106-.139.16-.121.554.178.896-.054 1.11-.552.295.124.272.423.37.657.127.959-.11 1.888-.301 2.805-.63 3.014-1.18 6.043-1.878 9.044-.088.378-.225.74-.28.978.41-.661 1.208-1.007 1.938-1.44.366-.01.468.299.62.532a17.07 17.07 0 0 1 1.668 3.284 34.37 34.37 0 0 1 .932 5.752c.29 2.593.578 5.186.856 7.781.153 1.766.422 3.518.727 5.262.182.797.369 1.595.672 2.357.227.535.478 1.06.809 1.541.271.533.705.944 1.067 1.408.227.405.65.597.975.896.264.238.56.428.874.59.303.165.616.312.941.428.799.284 1.623.359 2.462.325.685.04 1.344-.125 2.007-.255.375-.092.74-.216 1.1-.356 1.483-.581 2.047-1.876 2.508-3.246.03-.086.006-.193-.132-.3-.582.603-1.068 1.332-1.846 1.737-.394.184-.775.435-1.24.228-.088-.066-.132-.17-.069-.248.521-.652.733-1.52 1.444-2.045.348-.258.602-.618.88-.953.322-.388.419-.776.173-1.21-.042.482-.114.949-.724 1.067-.33-.268-.502-.035-.691.203-.384.485-.58 1.103-1.076 1.51-.905.412-1.608-.056-2.299-.54a2.472 2.472 0 0 1-.63-.677c-.667-1.107-.906-2.317-.925-3.599-.032-2.08.178-4.139.462-6.194.266-1.662.49-3.331.848-4.978.096-.443.03-.801-.297-1.11-.167-.583.048-1.142.115-1.71a.486.486 0 0 1 .375-.404c.413-.106.414-.099.53-.454.382-1.167.853-2.304 1.208-3.482.488-1.115 1.054-2.182 1.84-3.12.708.066 1.04.756 1.677 1.004-.481-2.626-.963-5.234-1.45-7.84-.286-1.105-.428-2.236-.596-3.363-.044-.289-.054-.58.048-.862a.467.467 0 0 1 .148-.189c.32-.159.645-.302 1.016-.28.169.051.239.184.278.34.064.998.027 1.997.02 2.93.722-.86 1.606-1.64 2.425-2.483.074-.078.152-.15.229-.222.556-.477.997-1.064 1.508-1.585.429-.864.354-1.807.436-2.726.146-.534.104-1.09.174-1.63.284-1.12.09-2.128-.673-3.017-.17-.199-.296-.435-.447-.651-.499-.809-.85-1.638-.36-2.583.014-.047.022-.101.054-.135 1.166-1.224 1.252-2.654.79-4.182-.133-.444-.13-.907-.231-1.353-.12-.832-.28-1.658-.407-2.489.058-.93-.354-1.618-1.102-2.134-.193-.205-.394-.404-.52-.662-.14-.378-.479-.598-.718-.896-.153-.191-.42-.391-.082-.654.193.006.311.139.443.252.502.465.918 1.022 1.506 1.399a.772.772 0 0 0 .226.065c3.54.028 7.074.006 10.61.01.194 0 .387-.013.574-.071.216-.05.433-.054.652-.016.43.14.908.077 1.32.302a.5.5 0 0 1 .306.298c.035.144-.061.206-.166.261-.796.242-1.606.435-2.414.629-1.38.43-2.775.803-4.166 1.187-.826.221-1.644.47-2.466.702-.718.13-1.395.41-2.102.583-.45.111-.48.313-.24.664.658.96 1.239 1.972 1.903 2.928.192.277.408.546.458.9-.276 1.044-.928 1.905-1.45 2.822-.398.703-.658 1.284.05 1.913.104.092.123.26.142.406.09 1.887.127 3.775.297 5.658.07.78-.04 1.48-.516 2.195-.626.942-.959 2.062-1.426 3.102-.628 1.392-1.211 2.806-1.846 4.195-.324.711-.32 1.285.115 1.963 1.019 1.594 2.001 3.213 2.979 4.831.134.327.394.418.722.378.437-.04.84-.223 1.273-.276 1.716-.227 1.726-.224 2.065-1.893.201-.996.496-1.971.686-2.97.045-.235.089-.48.298-.643.176-.063.273.055.372.165.112.153.204.324.268.5.171.472.478.623.946.441.55-.16 1.11-.282 1.677-.365a.716.716 0 0 1 .222.03c.286.14.358.37.28.663l.007-.004Z"/><path fill="#192960" d="m63.956 47.04-.296-.556c.05-.363.372-.325.604-.382.605-.146 1.216-.254 1.825-.38.903-.194 1.812-.353 2.711-.563.4-.003.605-.24.732-.59.18-.501.372-1 .58-1.49.933-2.24 1.755-4.524 2.72-6.75.078-.179.137-.366.264-.519.34-.3.785-.283 1.186-.399.52-.062 1.014-.249 1.534-.315.762-.113 1.499-.338 2.252-.493.517-.107.578-.328.26-.768-.637-.878-1.458-1.598-2.133-2.446-.164-.206-.369-.382-.437-.652-.111-.619-.018-1.248-.12-1.873a6.106 6.106 0 0 0-1.947-3.613c-.626-.77-1.255-1.536-1.942-2.254-.628-.82-1.377-1.536-2.034-2.33-.137-.155-.288-.303-.291-.53.029-.108.077-.191.213-.148 1.938 2.136 3.882 4.265 5.811 6.409 1.347 1.496 2.635 3.047 4.025 4.5.685.718.898 1.456.808 2.41-.072.754-.306 1.256-.975 1.692-2.009 1.312-3.953 2.72-5.93 4.08a2.05 2.05 0 0 0-.661.752c-.929 1.728-1.871 3.447-2.782 5.184-.199.378-.454.586-.861.69-1.708.431-3.41.885-5.116 1.33v.003Z"/><path fill="#19245D" d="M9.08 42.701c-.544-1.015-1.095-2.027-1.627-3.05a2.482 2.482 0 0 0-.862-.94C4.63 37.4 2.684 36.067.733 34.741c-.288-.245-.402-.6-.568-.92-.295-.562-.095-1.164-.145-1.746.171-.071.276.026.374.143.248.52.366 1.086.582 1.619.142.348.323.646.753.667.664.125 1.323.274 1.98.421.747.171 1.498.323 2.243.501.356.128.747.155 1.083.35.25.177.354.45.46.718C8.23 38.33 8.964 40.166 9.699 42c.105.265.253.53.121.832-.286.18-.51.02-.738-.131v.001Z"/><path fill="#192459" d="M21.285 51.177c-.365-.019-.5-.353-.72-.553a127.137 127.137 0 0 1-3.008-2.814c-.405-.392-.84-.699-1.39-.833-.516-.356-1.16-.35-1.711-.61-.3-.142-.514-.257-.042-.457.239-.047.464.026.691.079.446.12.904.153 1.358.217.66.126 1.306.327 1.971.428.573.175.65-.294.848-.632.192-.326.178-.876.79-.784.17.186.264.413.306.651.304 1.667.767 3.301 1.043 4.975-.003.127-.035.244-.135.332l-.001.001Z"/><path fill="#262E57" d="M15.311 15.468c0-.089 0-.178.002-.267 1.92-.893 3.962-1.332 6.045-1.624 2.34-.329 4.693-.279 7.046-.286.985-.003 1.983.1 2.919-.339.11.14.035.261-.037.384-.56.68-1.28 1.192-1.912 1.798-.47.305-.658 1.007-1.368.97.055-.26.39-.48.12-.79.014-.647.672-.841.96-1.381-1.57-.006-3.11 0-4.65 0-1.127 0-2.238.188-3.356.287-1.6.234-3.174.571-4.718 1.057-.343.108-.682.24-1.052.193l.001-.002Z"/><path fill="#2B335D" d="M65.686 15.775c-.428-.069-.88.118-1.289-.129-1.22-.658-2.551-.938-3.905-1.148-.708-.088-1.398-.304-2.12-.293a7.807 7.807 0 0 0-1.907-.117c-1.613-.288-3.239-.107-4.859-.152-.411-.012-.824.003-1.233-.058-.198.356.18.433.31.624.195.288.602.426.594.857-.645-.175-1.022-.724-1.524-1.099-.267-.295-.65-.492-.784-.902.005-.131-.203-.341.129-.353.47.192.96.273 1.468.273 1.887.001 3.774-.037 5.658.026 2.94.098 5.774.728 8.487 1.871.352.149.71.304.975.6Z"/><path fill="#3A3650" d="M49.098 13.004c-.136.11.007.236-.02.351-.227.086-.427-.013-.628-.093-2.22-.882-4.507-1.435-6.905-1.543-.721-.032-1.438-.167-2.165-.098-.519.142-1.053.111-1.583.133-1.013.126-2.018.282-3.003.552-1.075.181-2.055.645-3.065 1.019-.184.045-.37.112-.539-.04l.134-.332c2.3-1.061 4.711-1.647 7.24-1.876 3.578-.324 6.955.365 10.226 1.749.108.045.206.116.308.176v.002Z"/><path fill="#1A345B" d="M.286 32.223a23.286 23.286 0 0 1-.266-.146c-.067-.191.041-.317.158-.45 4.329-4.894 8.433-9.986 12.93-14.733.282-.296.59-.566.887-.85l.194.185c-.117.578-.667.811-.982 1.232-.724.686-1.296 1.513-2.03 2.189-1.002 1.214-2.048 2.39-3.05 3.605-.577.556-1.018 1.234-1.61 1.779-.673.832-1.377 1.639-2.047 2.475-1.309 1.362-2.457 2.865-3.737 4.251-.146.158-.227.377-.447.462v.001Z"/><path fill="#252F60" d="m52.627 64.11.411-.145c.712 1.204 1.433 2.4 2.127 3.615.159.277.386.63.062.928-.325.3-.65.048-.912-.147-1.19-.89-2.41-1.755-3.178-3.081a56.5 56.5 0 0 1 .465-.156c.407-.027.556.341.822.534.473.468.878 1.01 1.525 1.424-.314-.823-.803-1.458-1.134-2.174-.114-.247-.36-.476-.188-.796v-.003Z"/><path fill="#2D3569" d="M14.46 46.041c-.035.05-.334.073-.071.14.508.132.954.458 1.499.463.214.001.289.136.277.333-1.78-.457-3.56-.915-5.342-1.368-.265-.067-.384-.267-.495-.485-.415-.808-.831-1.615-1.249-2.424.26-.025.5.046.737.14.475.148.428.64.63.967.186.303.26.664.436.973.087.146.211.25.366.32.766.235 1.557.357 2.341.505.295.134.725 0 .87.433l.001.003Z"/><path fill="#2B3A54" d="M28.258 61.746c.023.124.034.254.168.321.131.153.088.32.019.476a33.895 33.895 0 0 1-2.322 4.336.399.399 0 0 1-.29.197c-.052-.13-.155-.184-.288-.195 1.075-1.622 1.9-3.376 2.714-5.135Z"/><path fill="#2C4668" d="m69.637 19.992-.145.146c-.261.08-.414-.099-.535-.265-.438-.603-1.02-1.073-1.477-1.655-.389-.488-.848-.908-1.276-1.358-.172-.18-.43-.33-.358-.65l.146-.138c1.255 1.268 2.486 2.56 3.643 3.92h.002Z"/><path fill="#423656" d="m21.285 51.177-.003-.307c.416-.179.785-.164 1.054.258.118.432.83.154.848.708-.634-.22-1.307-.323-1.9-.66v.001Z"/><path fill="#1A345B" d="M.165 33.822c.353.206.428.584.568.921-.464-.137-.66-.44-.568-.92Z"/><path fill="#FE783C" d="M22.335 51.129c-.32-.215-.712-.136-1.053-.258l-1.31-5.687c-.19-.26-.031-.497.046-.74 1.338-2.386 2.574-4.829 3.917-7.212.218-.387.032-.933.512-1.191.044.115.044.257.19.308.16.734.203 1.465.133 2.224-.16 1.731-.093 3.468.04 5.21.372-.872.535-1.798.859-2.672.149-.401.216-.864.71-1.027.33.535.567 1.113.745 1.715.187.935-.214 1.806-.315 2.711-.12 1.08-.292 2.156-.454 3.232-.063.417.096.817.023 1.225-.44.771-.89 1.537-1.316 2.317-.155.283-.343.348-.648.277-.69-.16-1.385-.29-2.079-.432Z"/><path fill="#FB844C" d="M55.06 51.16c-1.16-1.87-2.32-3.742-3.489-5.608-.154-.246-.087-.456.012-.684 1.19-2.73 2.29-5.502 3.617-8.163.417-.836.41-1.561.385-2.374-.056-1.768-.12-3.534-.18-5.301.225-.057.38.08.5.224.842 1.026 1.738 2.007 2.556 3.052.06.078.08.175.095.272.012.118.002.233-.024.347-.162 1.925-.311 3.85-.48 5.774-.01.096.014-.022-.008.071-.096.406.002.966-.537 1.083-.492.107-.661-.391-.903-.714-.14-.185-.231-.489-.519-.434-.296.055-.353.367-.439.617a1.543 1.543 0 0 0-.066.503c0 1.623-.026 3.248.01 4.872.023 1.66-.012 3.32-.007 4.981.027.358.037.718-.033 1.07-.05.247-.09.56-.492.412h.003Z"/><path fill="#FD9A43" d="m59.166 17.993 4.179-1.198c1.067.842 1.896 1.909 2.766 2.935.183.217.302.493.335.79-.394 1.955-.16 3.933-.225 5.899-.013.379.06.775-.18 1.117-.382.228-.597-.05-.832-.27-.28-.62-.83-.928-1.403-1.21-.995-.29-2-.545-3.004-.796-.277-.069-.573-.098-.805-.298a.442.442 0 0 1-.059-.23c.371-1.269-.043-2.53-.043-3.794 0-.236-.087-.477-.068-.716.066-.83-.01-1.614-.662-2.23l.001.001Z"/><path fill="#FDC04A" d="M24.446 36.04c-.263 1.665-1.368 2.942-2.054 4.41-.58 1.24-1.294 2.42-1.945 3.628-.082.15-.155.3-.315.383-.626-.249-.527-.83-.495-1.286.066-.937.045-1.883.163-2.811.142-1.118.088-2.211-.099-3.31a6.352 6.352 0 0 1-.06-1.728c.052-.367.266-.648.478-.931.4-.377.734-.812 1.078-1.238.479-.594 1.025-1.133 1.471-1.754.599-.596.996-1.362 1.625-1.93.144-.13.22-.4.506-.289-.028 2.29-.203 4.573-.352 6.855h-.001Z"/><path fill="#FA8241" d="m28.007 16.106 1.29-1.068c.204.212.095.457.07.69-.04.39-.036.771.113 1.145.361.907.477.97 1.443.737.145-.035.285-.063.42.03.041.553-.414.806-.742 1.07-.822.661-1.11 1.477-.945 2.49.03 1.328 0 2.655-.001 3.981.011.356.038.715-.136 1.048-.689.313-1.359.85-2.13.174-.344-.581-.713-1.15-1.028-1.747-.36-.682-.03-1.387.054-2.062.204-1.68.528-3.345.747-5.024.083-.635.445-1.043.845-1.462v-.002Z"/><path fill="#FAEFD9" d="M32.048 49.52c-.696.52-1.392 1.04-2.202 1.643.18-.86.334-1.614.498-2.365.696-3.214 1.4-6.425 1.929-9.672.058-.356.066-.72.096-1.08-.014-.702-.207-1.407.037-2.105.411-.28.403.226.611.326.257.916.796 1.74.956 2.694-.211-1.226-.671-2.418-.597-3.692.092-.21.127-.48.46-.431.366.99.704 2.002.848 3.04.15 1.083.436 1.916 1.699 1.988.093.592-.523.506-.753.79a6.141 6.141 0 0 1-.422.272c-.778.463-1.05.32-1.114-.499-.027.488-.211 1.035-.256 1.606-.181.824-.408 1.64-.55 2.473-.22 1.16-.476 2.31-.729 3.464-.149.524-.067 1.123-.512 1.548h.001Z"/><path fill="#F8F7F4" d="M25.83 67.076c.93-1.636 1.955-3.223 2.594-5.009 1.326-3.161 2.299-6.425 2.782-9.824.096-.675.601-.942 1.067-1.27.21-.15.293.015.362.179.102.242.2.484.3.728.21.949-.055 1.874-.214 2.785-.423 2.42-1.325 4.693-2.32 6.928a16.321 16.321 0 0 0-.68 1.742c-.898 1.47-1.991 2.778-3.238 3.967-.442.423-.575.254-.652-.225v-.001Z"/><path fill="#41A9B8" d="M66.137 45.887c-.807.277-1.684.261-2.477.598l-.147-.029c-.705-.117-.918-.36-.861-1.058.11-1.35.164-2.705.338-4.049.066-.51-.025-1.011-.08-1.517-.056-.504-.118-1.032.398-1.378.36-.15.584.079.781.315.257.306.504.622.796.896.404.37.691.847 1.082 1.23.212.276.608.456.482.911-.412 1.337-.45 2.702-.314 4.08h.002Z"/><path fill="#F0E6D8" d="M52.627 64.11c.407 1.148 1.317 2.061 1.647 3.505-.868-.613-1.464-1.198-1.971-1.881-.918-2.328-2.325-4.42-3.234-6.756-.875-2.25-1.578-4.535-1.825-6.944.013-.045.015-.1.041-.135.22-.291.334-.967.601-.85.477.208 1.002.54 1.095 1.231a38.646 38.646 0 0 0 2.766 10.008c.264.619.583 1.214.878 1.821h.002Z"/><path fill="#FC8B3E" d="M60.025 24.805c-1.096-.192-2.191-.389-3.205-.88.27-.41.31-.847.197-1.319a4.78 4.78 0 0 1-.069-1.88c.117-.717.083-1.378-.261-2.018.826-.238 1.653-.475 2.48-.715.663.218.87.663.882 1.365.03 1.483.17 2.962.273 4.442.026.378-.048.714-.297 1.003v.002Z"/><path fill="#F06848" d="M52.746 26.393c-.476.884-.12 1.662.313 2.43.338.807.245 1.097-.52 1.52-.251.14-.485.325-.785.357-.518-.181-.625-.69-.857-1.093-.13-.227-.201-.488-.325-.721-.368-1.123-.69-2.261-1.156-3.351-.247-.98-.777-1.871-.91-2.887.01-.121.025-.263.119-.328.699-.482 1.208-1.136 1.709-1.806.136-.18.354-.445.63-.114.16.482.075.98.098 1.472-.087 1.382.216 2.75.153 4.133-.025.537.29.66.762.551.254-.058.48-.254.765-.162l.004-.001Z"/><path fill="#FBF2E1" d="M35.87 66.875c-.2-1.742-.418-3.48-.595-5.224-.089-.881-.312-1.75-.267-2.644.613-.49 1.322-.736 2.096-.82.082.029.15.075.209.138.328.645.323 1.349.356 2.043.045.962-.08 1.928.087 2.887.114 1.036.059 2.074.044 3.11-.07.355-.158.765-.614.35-.387-.353-.682-.415-.999.047a.276.276 0 0 1-.32.111l.002.002Z"/><path fill="#F8F7F3" d="M47.244 52.034c.407.242.209.657.275.993.677 3.46 1.89 6.715 3.606 9.8.502.903 1.195 1.773 1.176 2.906l-.699-.612c-.811-1.224-1.734-2.376-2.446-3.667-1.073-1.95-2.072-3.922-2.577-6.117-.284-1.229-.214-2.332.662-3.303h.003Z"/><path fill="#346181" d="M44.151 58.578c.438.191.593.415.472.975-.37 1.7-.619 3.424-.915 5.139-.49 1.211-.785 2.483-1.105 3.744-.114.448-.236.888-.473 1.287-.13.217-.24.508-.6.366-.369-.527-.26-1.131-.18-1.684.123-.868.113-1.733.125-2.6.1-.652.1-1.322.315-1.957.14-1.628 1.054-3.015 1.444-4.568.074-.294.182-.6.408-.833.22-.147.362.001.511.13l-.002.001Z"/><path fill="#FCDBAD" d="M37.022 58.29c-.671.24-1.343.479-2.014.717-.18-1.978-.568-3.923-.93-5.873-.092-.203.01-.355.13-.502.603-.417.88-.39 1.358.098.309.316.405.757.685 1.087.955 1.033 1.723 2.17 1.997 3.583-.23.544-.819.591-1.227.889l.001.001Z"/><path fill="#505683" d="M19.979 17.794c.948.135 1.863.398 2.756.742-.229 1.539-.004 3.086-.07 4.627-.013.312.016.629-.073.935a.63.63 0 0 1-.21.302c-.24.152-.52.183-.786.262-.427.061-.823.264-1.266.25-.131-.026-.25-.068-.28-.221-.025-1.422 0-2.843-.006-4.265-.003-.65.008-1.3-.137-1.942-.052-.23-.105-.478.072-.692v.002Z"/><path fill="#E56A53" d="M27.388 26.401c.434.233.866.154 1.293-.016.244-.096.492-.154.756-.138.3.317.171.715.203 1.083.023.258-.013.522.1.767.088.202.087.41.055.622-.03.1-.082.187-.137.273-.529.807-1.077 1.602-1.533 2.456-.106.184-.24.36-.219.593a2.016 2.016 0 0 1-.147.479c-.283.534-.034 1.16-.29 1.698-.203.171-.313-.008-.4-.134-.443-.636-1.047-1.182-1.156-2.01-.244-.52-.192-.988.135-1.484.438-.664.799-1.38 1.196-2.07.392-.684.53-1.383.143-2.119h.001Z"/><path fill="#F16342" d="m22.31 24.36.142-.145c.302-.268.626-.411 1.016-.173.632 1.031 1.25 2.07 1.902 3.09.312.488.39.903-.082 1.342-.206.191-.33.47-.49.708-.807.665-1.261 1.645-2.05 2.326-.408-.21-.39-.601-.342-.95.245-1.766-.067-3.513-.146-5.267-.015-.314-.065-.626.05-.931Z"/><path fill="#45728D" d="M47.931 38.34c0 1.287.288 2.537.517 3.793.035.189.047.383.069.574-.032.924-.235 1.823-.399 2.728-.035.195-.099.375-.276.491-.184.069-.307-.022-.416-.156-.326-.99-.503-2.021-.853-3.005-.29-1.21-.443-2.443-.644-3.667.685-1.476 1.029-3.05 1.36-4.63.059-.277.086-.677.451-.624.29.042.23.429.245.687.01.145.005.289.006.433a2.387 2.387 0 0 1-.06.488c-.15.657-.113 1.318-.011 1.974.048.308.093.61.01.914h.002Z"/><path fill="#4C6D90" d="M19.979 17.793c-.522-.193-1.034-.413-1.6-.438-.474-.185-.946-.384-1.467-.4-.197.177-.299.412-.392.651-.094.252-.111.517-.116.782-.036 2.163.158 4.325 0 6.488-.017.239.003.483.11.707.065.133.184.178.32.192.463-.035.912-.13 1.34-.307.072-.044.13-.1.181-.162.291.124.586-.047.88-.061.314-.117.717-.064.885-.461.04-.09.112-.178.111-.266-.035-2.243.28-4.501-.253-6.725Z"/><path fill="#244E7D" d="M41.65 70.085c.41-.403.628-.93.714-1.46.178-1.093.635-2.104.84-3.186.059-.31.183-.6.502-.746-.125 1.237-.306 2.471-.366 3.71-.093 1.96-.331 3.95.671 5.788.067.125.097.27.143.405.05.588.067 1.169-.359 1.655-.414.058-.6-.254-.798-.518-.452-.6-.826-1.247-1.061-1.966-.302-.952-.52-1.918-.468-2.926.013-.263-.018-.539.182-.758v.002Z"/><path fill="#FA8144" d="M52.746 26.392c-.229.134-.442.315-.689.396-.782.252-1.04.04-1.06-.775-.037-1.378-.094-2.754-.14-4.132.742.482.74.477 1.462-.178.357-.324.639-.726 1.027-1.017.256 1.135.517 2.275.562 3.44.03.8-.604 1.338-.98 1.973-.058.096-.15.176-.182.293Z"/><path fill="#5FAFAB" d="M63.526 38.483c-.642.322-.51.931-.4 1.411.273 1.197-.048 2.356-.133 3.523-.054.74.015 1.49-.166 2.235-.102.417.31.657.686.805l-1.74.41c-.426-.296-.375-.753-.387-1.183-.028-.994.08-1.984.191-2.964.171-1.523.092-3.043.127-4.566.01-.38-.054-.783.262-1.093.694-.151.84.511 1.221.825.082.214.394.302.339.597Z"/><path fill="#76AB9E" d="M62.214 37.026c-.305.137-.295.408-.294.68.003.678-.026 1.359.006 2.036.092 1.938-.296 3.847-.32 5.78-.005.466.043.904.167 1.345-1.045.499-.968-.47-1.257-.959.014-2.878.29-5.752.125-8.633-.028-.489-.038-1.039.512-1.34.603.122 1.064.381 1.06 1.092v-.001Z"/><path fill="#52B8B3" d="M66.287 20.273c-.658-.963-1.478-1.783-2.272-2.63-.247-.264-.539-.493-.672-.848.837-.185 1.64-.518 2.503-.585.581.638 1.16 1.277 1.742 1.915.16 1.002.11 2.005.007 3.006-.132.313-.33.206-.52.073-.344-.24-.594-.563-.786-.93h-.002Z"/><path fill="#FB723A" d="M56.687 18.707c.43.263.668.654.565 1.146-.237 1.123-.145 2.234.036 3.346.066.403-.047.655-.468.726a.519.519 0 0 0-.126.014c-.83-1.296-1.645-2.604-2.5-3.883-.292-.438-.286-.638.269-.76.748-.167 1.484-.39 2.224-.589Z"/><path fill="#EDDFD0" d="M29.722 63.335c-.23-.55.128-.987.325-1.425 1.079-2.383 2.026-4.809 2.51-7.389.164-.873.255-1.76.378-2.64.787 1.115.92 2.249.504 3.6-.791 2.58-1.78 5.046-3.273 7.3-.13.196-.297.368-.446.554h.002Z"/><path fill="#334F7A" d="M44.151 58.578c-.148-.045-.299-.09-.448-.137-.308.167-.538.037-.745-.19.03-.194-.26-.33-.104-.55.345-.994.308-2.033.366-3.06.02-.36-.05-.721-.005-1.083.086-.223.288-.25.485-.286a.6.6 0 0 1 .568.315c.13.385.29.492.661.181.505-.422.851-.811.746-1.57-.057-.418-.238-1.061.407-1.35.337.312.266.73.303 1.123.02.216-.183.472.099.647-.41 1.204-.823 2.408-1.23 3.612-.101.295-.187.596-.28.9-.249-.062-.164-.37-.386-.53-.49.59-.232 1.34-.435 1.975l-.002.003Z"/><path fill="#FBECD1" d="M35.87 66.875c.16-.078.225-.231.316-.374.308-.485.603-.49.985-.035.136.162.28.199.43.11.422.112.329.472.343.757.022.426-.04.857.092 1.274.031.832.24 1.65.174 2.49-.273.735-.995.86-1.586 1.163-.375-1.778-.648-3.57-.755-5.385Z"/><path fill="#305F8B" d="M47.793 45.914c.146-.754.31-1.504.429-2.263.053-.337.074-.669.296-.946.237 1.117.486 2.23.705 3.348.258 1.315.495 2.634.727 3.954.04.232.006.476.006.763-.772-.226-1.177-.946-1.865-1.217-.14-.118-.191-.28-.199-.451-.035-.89-.003-1.785-.252-2.656a.53.53 0 0 1 .156-.533l-.003.001Z"/><path fill="#192D66" d="M43.674 76.207c.399-.465.164-1.12.48-1.61.52.418.984.9 1.674 1.075.394.099.75.128 1.113-.063.691-.399 1.058-1.142 1.691-1.603.647-.314.704-.848.517-1.483.703.532.77 1.026.293 1.676-.36.49-.78.91-1.233 1.315-.57.51-.71 1.344-1.285 1.868-.19.47-.608.268-.94.324-1.01-.124-1.851-.515-2.308-1.497l-.002-.002Z"/><path fill="#F3D2A9" d="M27.455 34.282c-.074-.661-.221-1.33.187-1.944.45.01.61.327.728.686.143.435.212.89.36 1.325.361 1.055.849 1.423 1.965 1.465.24.01.485-.014.704.117.197.223.007.298-.153.346-.253.076-.511.152-.765.209-.59.131-.736.401-.409.915-.718.772-2.179.884-2.88.223l-.89-.88c.231-.277.457-.556.692-.828.49-.564.763-.553 1.268.003.097.107.2.208.29.29-.529-.535-1.01-1.119-1.1-1.927h.003Z"/><path fill="#5F5375" d="M47.793 45.915c.238 1.2.363 2.412.296 3.64-.32.976-1.039 1.736-1.443 2.669-.057.131-.108.264-.162.397-.168.13-.31.261-.298-.121.017-.55.047-1.106-.136-1.64-.257-.244-.229-.568-.229-.875-.006-1.316-.019-2.634.005-3.95.016-.168.039-.335.124-.485.367.04.379.04.417.401.06.574-.032 1.156.08 1.89.321-.409.4-.8.558-1.145.147-.323.16-.719.502-.938l.286.157Z"/><path fill="#F9583D" d="M26.378 48.968c-.573-.768-.18-1.601-.079-2.37.215-1.607.403-3.224.823-4.8.586 1.005.94 2.111 1.41 3.166.095.215.051.42-.073.62-.696 1.127-1.389 2.255-2.082 3.384h.001Z"/><path fill="#FDC65C" d="M49.861 14.155c.471.402.944.801 1.416 1.203l.46.553c-.317.305-.75.401-1.12.616-.559.325-1.027.751-1.481 1.202-.861-.405-1.486-1.062-1.985-1.856.077-.331.245-.62.427-.9.675-1.03 1.04-1.16 2.281-.82l.002.002Z"/><path fill="#FD994A" d="M26.38 40.082c-.742 1.162-.895 2.522-1.286 3.803-.054.176.006.459-.242.462-.237.003-.228-.284-.27-.459a2.602 2.602 0 0 1-.085-.71c.054-1.71-.158-3.427.137-5.13.098-.568-.308-1.134.003-1.7.188-.02.24.125.295.256.484 1.16.966 2.32 1.448 3.48v-.002Z"/><path fill="#1D2D63" d="M32.523 35.875c-.062.724.096 1.462-.155 2.173-.253-.12-.079-.438-.275-.584-.407-.4-.113-.972-.347-1.413-.121-.328-.43-.367-.703-.43-1.121-.26-1.949-.813-2.156-2.04-.044-.262-.147-.516-.44-.616-.514-.596-.494-.73.167-1.16.54-.09 1.08-.164 1.601.086.404.34.067.747.102 1.122.054.235.146.45.32.625.318.32.419.118.476-.196.165-.191.369-.13.57-.088.199.111.324.287.438.475.285.652.752 1.27.403 2.046h-.002Z"/><path fill="#FDB34F" d="M49.102 17.662c.612-.985 1.55-1.477 2.634-1.75.834.476 1.305 1.149 1.174 2.151-.015.517-.5.602-.81.775-.448.25-.936.464-1.458.548-.675-.129-.88-.777-1.31-1.177-.12-.163-.316-.294-.23-.546v-.001Z"/><path fill="#4B8393" d="M24.495 13.746h5.056c-.397.658-1.036 1.004-1.424 1.569l-.434.327c-1.073.112-2.148.023-3.222.05-.358-.565-.346-1.451.024-1.944v-.002Z"/><path fill="#FBA147" d="M50.56 19.263c.833-.304 1.684-.571 2.35-1.202.236.86.368 1.736.435 2.625-.343.856-1.082 1.361-1.798 1.812-.448.282-.446-.413-.692-.617l-.008-1.597c-.211-.308-.325-.643-.288-1.021h.001Z"/><path fill="#1F96D1" d="M16.912 16.955c.024.203-.05.381-.147.554-.742.756-1.394 1.589-2.105 2.371-.191.21-.333.574-.74.35-.28-.954-.432-1.944-.807-2.872l1.074-1.13 2.722.727h.003Z"/><path fill="#654B79" d="M23.468 24.043c-.338.059-.677.116-1.016.174-.068-1.41.064-2.82-.076-4.234-.042-.43-.163-1.07.36-1.445.51.073 1.018.152 1.472.422-.358 1.256-.279 2.53-.146 3.808-.083.478-.613.75-.594 1.277v-.002Z"/><path fill="#E15E55" d="M51.72 30.624c.2-.124.386-.288.602-.365.707-.253.92-.737.737-1.435.823 1.095 1.764 2.151 1.16 3.694-.137.108-.1.263-.09.396.043.453-.023.772-.589.846-.546.073-.821-.1-.89-.632a6.425 6.425 0 0 0-.191-.506c-.094-.213-.162-.437-.279-.64-.12-.198-.188-.418-.292-.624-.076-.241-.373-.43-.17-.734h.002Z"/><path fill="#24518A" d="m24.35 15.616 3.343.024c-.204.19-.458.123-.693.123-3.096.003-6.191.037-9.285-.025-.794-.016-1.625.01-2.404-.268 1.819-.794 3.754-1.12 5.692-1.438.175.228.085.453 0 .683-.247.686-.244.69.504.7.674.007 1.348-.005 2.022.004.285.004.586-.03.82.197Z"/><path fill="#F2934A" d="M52.194 15.562c-.634-.313-1.026-.887-1.491-1.383-.152-.336.067-.372.308-.372 1.401-.005 2.803-.006 4.205 0 .452.001.596.243.481.667-.229.849-.608 1.157-1.48 1.144-.674-.01-1.351.07-2.023-.054v-.002Z"/><path fill="#8FA490" d="M60.32 45.613c-.047-.146-.097-.291-.145-.438-.279-1.085-.17-2.192-.155-3.29.026-1.756.156-3.512-.006-5.27-.052-.573-.284-1.202.266-1.692.785.18 1.068.47 1.06 1.086-.625.175-.524.79-.502 1.147.138 2.26.058 4.514-.075 6.77-.033.578-.007 1.16-.014 1.738-.002.14-.104.208-.23.243l-.198-.294Z"/><path fill="#85486F" d="M24.062 22.766c-.02-.012-.048-.02-.061-.037-.456-.604-.313-3.192.207-3.771.604.143 1.207.3 1.814.425.294.061.384.149.187.419-.72.985-1.432 1.974-2.147 2.962v.002Z"/><path fill="#F26654" d="M34.239 52.76c-.054.125-.108.25-.16.376-.62-1.107-1.098-2.289-1.816-3.341-.066-.096-.143-.183-.215-.275l.329-1.56c.237-.194.424-.024.563.123.426.454.908.852 1.308 1.334.12.931.008 1.874.159 2.803.032.196-.054.377-.167.54h-.001Z"/><path fill="#433364" d="M48.23 77.069c.582-.533 1.243-.991 1.6-1.731.186-.382.372-.21.51.025.143.246.064.5-.033.76-.627 1.714-1.641 3.018-3.539 3.412-.184-.569.248-.917.477-1.34.352-.355.954-.493.987-1.127l-.001.001Z"/><path fill="#F0BD95" d="M27.455 34.282c.48.739.746 1.615 1.457 2.216-.349-.01-.528-.28-.7-.496-.436-.555-.773-.376-1.139.07-.218.262-.298.699-.77.674-.231-1.549-.322-3.11-.39-4.672.408.81.995 1.495 1.54 2.208h.002Z"/><path fill="#C6A889" d="M53.46 37.119c-.477.496-.867 1.077-1.446 1.473-.438.103-.678-.173-.882-.483a14.493 14.493 0 0 0-.754-1.057c-.046-.3.172-.44.364-.594.358-.196.555-.625 1.003-.69.7.286 1.44.523 1.715 1.35v.001Z"/><path fill="#CF9F65" d="M52.195 15.562c.737-.184 1.487-.044 2.23-.086.372-.022 1.227-.937 1.185-1.298-.03-.25-.228-.292-.43-.292-1.38-.005-2.76-.005-4.14-.008-.207 0-.308.11-.335.302l-.33-.302c.065-.121.178-.152.303-.15 1.952.032 3.906-.103 5.851.147.436.108.968.029.91.794-.062.838-.07.92-.882.951-.196.008-.387.031-.577.072-1.27-.03-2.545.071-3.815-.056a.066.066 0 0 1 .03-.071v-.003Z"/><path fill="#E4D9C0" d="M27.194 37.626c.778.444 2.094.302 2.831-.305.63-.058.729.444.913.858v-.016c.054.861-.324 1.2-1.39 1.252-.299.015-.578-.033-.826-.208-.55-.488-1.077-.997-1.526-1.58h-.002Z"/><path fill="#F9EBD0" d="M30.936 38.18c-.322-.266-.471-.717-.912-.859-.225-.166-.565-.303-.492-.623.054-.235.438-.16.607-.277.409-.283.92-.16 1.318-.416l.04-.088c.124-.125.253-.195.413-.052.313.503.068 1.07.183 1.598-.01.093-.039.19-.027.28.063.527-.117.68-.63.474-.134-.052-.32-.252-.5-.038Z"/><path fill="#F7D3AD" d="M50.848 36.588a.972.972 0 0 0-.427.444c-.394.47-.862.832-1.465.997-.283.099-.565.198-.848.299-.28-.472-.178-1.002-.232-1.508.03-.333-.03-.69.261-.95.196-.128.39-.045.584.004.426.16.895.003 1.32.17.169.328.687.143.805.544h.002Z"/><path fill="#FBDBB4" d="M36.625 72.26c.36-.5 1.003-.61 1.42-1.028.083-.032.15-.013.206.057.219.662.3 1.351.366 2.043-.294.55-.61 1.082-1.277 1.254-.388-.728-.546-1.53-.715-2.325Z"/><path fill="#C5C2AA" d="M48.956 38.029c.467-.365.917-.753 1.465-.997.406.105.521.478.702.778.216.36.467.664.89.782l-.173.173c-.695.764-1.607.364-2.416.39-.436.015-.12-.579-.31-.838-.028-.11-.005-.249-.158-.288Z"/><path fill="#89D4CC" d="M49.114 38.316c.102.685.432.837 1.113.638.505-.147 1.114.267 1.613-.19-.937.845-1.873 1.692-2.726 2.463v-2.91Z"/><path fill="#A9EADE" d="M28.72 39.205c.519-.013 1.022.006 1.548-.152.518-.156.683-.414.67-.89.245 1.11.043 2.226.144 3.545-.886-.938-1.624-1.72-2.361-2.503Z"/><path fill="#608A92" d="M60.6 14.337c1.363.149 2.653.55 3.896 1.116.035.017.316-.05.11.152-.042.041-.137.028-.209.041-.197-.001-.394-.004-.59-.006-.936.113-1.875.026-2.812.047-.573-.321-.678-.778-.395-1.35Z"/><path fill="#C58C74" d="M53.46 37.12c-.474-.564-1.087-.935-1.738-1.256.011-.52.284-.865.732-1.093.61.095 1.225.206 1.582-.5-.039.723-.075 1.449-.116 2.173a.738.738 0 0 1-.46.674v.001Z"/><path fill="#814B65" d="M44.59 79.826c-.906.03-1.805.033-2.632-.42.486-.244.69-.82 1.213-1.022.193-.04.382-.027.573.01.488.176 1.02-.03 1.504.185.19.63-.11 1.004-.657 1.247h-.002Z"/><path fill="#F5B17F" d="M39.235 77.494c-.413-.425-.845-.836-1.07-1.404-.174-.693.322-1.076.703-1.51.171-.059.29.042.35.167.284.574.716 1.066.913 1.685-.24.404-.384.888-.896 1.062Z"/><path fill="#643F66" d="M44.59 79.826c.424-.27.412-.814.728-1.154.169-.368.515-.313.824-.345.41.045.788-.336 1.214-.093l-.59 1.302c-.717.153-1.43.36-2.178.29h.001Z"/><path fill="#D37366" d="M54.036 34.272c-.153.126-.127.302-.127.467 0 .263-.12.478-.379.364-.355-.156-.782.025-1.089-.275-.141-.674.05-1.29.333-1.888.067.572.353.76.927.603.27-.075.35-.187.356-.435.006-.206-.066-.442.162-.591-.009.59.016 1.183-.184 1.754l.001.001Z"/><path fill="#F9C998" d="M38.92 74.581c-.167.544-.706.905-.755 1.509-.375-.447-.62-.965-.825-1.505l1.134-1.157c.07-.048.137-.042.2.015.183.357.432.702.247 1.14v-.002Z"/><path fill="#874158" d="M47.356 78.235c-.405.04-.751.325-1.177.28-.133-.325-.184-.673-.28-1.008.337-.085.706.096 1.024-.127.479.079.873-.205 1.308-.31.268.314.151.545-.16.733l-.713.433-.002-.001Z"/><path fill="#DD8B6C" d="M39.235 77.494c.306-.313.413-.791.836-1.007.52-.013.706.402.95.744-.093.506-.342.908-.804 1.16-.383-.24-.74-.505-.982-.897Z"/><path fill="#A25A68" d="M43.142 78.52c-.447.226-.462 1.027-1.184.886-.325-.07-.623-.194-.873-.42.03-.665.542-.844 1.042-1.034.43.022.863.044 1.013.568h.002Z"/><path fill="#C17067" d="M42.123 78.079c-.436.199-.794.486-1.036.906-.332-.135-.644-.3-.869-.592l.723-1.172c.607-.008.994.29 1.183.858h-.001Z"/><path fill="#2B335D" d="m60.899 15.623 2.907.017c-.176.187-.407.124-.619.124-3.469.005-6.937.005-10.406.003-.211 0-.442.059-.616-.133 1.31-.002 2.619-.005 3.928-.01 1.056-.11 2.106-.315 3.177-.216.55.009 1.12-.12 1.629.215Z"/><path fill="#E6E6EB" d="M48.63 74.003c-.414.691-.779 1.436-1.69 1.602.365-.619.682-1.27 1.192-1.792.118-.121.278-.26.439-.202.157.059.058.254.06.39v.002Z"/><path fill="#2F405A" d="m48.059 36.732.05 1.596-.178.013c-.288-.965-.434-1.935-.159-2.93.425.37.12.897.285 1.323l.002-.002Z"/><path fill="#77477B" d="M73.142 35.87c-.203-.242-.404-.485-.607-.725.03-2.104.415-4.2.12-6.311-.05-.358-.064-.73.17-1.05.259-.242.456-.056.66.093.374.54.982.92 1.127 1.622.064 1.753.131 3.505-.086 5.253-.035.285-.01.58-.224.814l-1.158.304h-.002Z"/><path fill="#5F3F7C" d="M74.301 35.567c.028-1.591.225-3.175.153-4.77-.022-.496-.159-.997-.001-1.494.852.213 1.165.894 1.417 1.63.378 1.276.428 2.579.352 3.894-.012.204-.133.353-.32.445-.546.03-1.04.337-1.6.296l-.001-.001Z"/><path fill="#308FB5" d="M68.48 44.01c.208.414.87.675.434 1.304-.925.191-1.852.38-2.777.572-.174-.233-.29-.47-.292-.785-.003-1.03.108-2.048.287-3.06.032-.18.066-.332.282-.352a.427.427 0 0 1 .279.108c.433.372.795.807 1.144 1.256.206.324.677.472.64.958h.002Z"/><path fill="#3A93AA" d="M67.45 21.327c.072-1.067-.13-2.144.138-3.202l1.903 2.014.297.43c.162 1.008.078 2.015-.003 3.022-.194.416-.423.173-.607.008-.281-.253-.467-.6-.754-.853-.374-.44-.866-.797-.975-1.419h.001Z"/><path fill="#1B3F79" d="M75.763 30.76c-.41-.509-.748-1.084-1.31-1.457l-1.036-1.296c-.022-.781.146-1.56-.008-2.346a.491.491 0 0 1 .319-.579c1.55 1.23 2.127 2.903 2.177 4.812.007.289.001.58.001.87-.048.068-.096.071-.141-.002l-.002-.001Z"/><path fill="#2A729C" d="M69.64 23.774c.067-1.068-.148-2.148.15-3.205.732.73 1.436 1.486 2.047 2.322.068.975.28 1.963-.27 2.878-.271.197-.452.027-.614-.164-.25-.297-.524-.57-.797-.844-.216-.305-.573-.539-.515-.987h-.002Z"/><path fill="#3F3676" d="m75.763 30.76.142.002c.838.96 1.675 1.92 2.512 2.882.608.7.503 1.001-.407 1.187-.704.143-1.406.293-2.11.439.157-.237.15-.502.15-.77.004-1.256-.135-2.498-.288-3.741l.001.001Z"/><path fill="#21578C" d="M71.394 25.791c.24-.26.31-.567.292-.919-.037-.665-.02-1.33.151-1.98.711.66 1.33 1.4 1.889 2.19-.185.311-.193.64-.096.98.192.678.071 1.32-.213 1.945l-.428-.296c-.533-.08-.582-.648-.93-.921a4.266 4.266 0 0 1-.608-.616c-.07-.12-.167-.235-.057-.381v-.002Z"/><path fill="#24A4F0" d="m10.781 44.914-.963-2.072c-.918-2.334-1.797-4.683-2.816-6.978.451-.744 1.082-1.34 1.66-1.977.498-.566.966-1.159 1.53-1.665.2-.155.4-.287.649-.097.619.638.525 1.45.44 2.201-.156 1.38-.103 2.757-.112 4.135-.009 1.47-.198 2.94-.022 4.416a3.527 3.527 0 0 1-.365 2.036l-.001.002Z"/><path fill="#3FE9E3" d="m5.95 35.586-2.28-.489c.555-.572.529-1.286.522-2.01-.006-.646-.095-1.305.14-1.935.397-.752.988-1.346 1.574-1.944.403-.344.638-.84 1.054-1.167.183-.144.404-.428.613-.01-.287 1.615-.422 3.24-.349 4.88.027.575.102 1.151 0 1.73-.146.831-.416 1.041-1.274.945Z"/><path fill="#2793ED" d="M.286 32.223c.255-.766.937-1.2 1.419-1.786.852-1.038 1.687-2.094 2.65-3.037.302-.044.252.198.213.327-.382 1.232-.559 2.495-.658 3.777-.013.165-.115.316-.184.471-.387.728-1.036 1.242-1.543 1.876-.21.262-.424.513-.567.818-.41.025-.6-.248-.716-.569-.221-.62-.411-1.25-.614-1.877Z"/><path fill="#4CE2DA" d="M5.95 35.586c.905-.083 1.214-.417 1.141-1.603-.125-2.017-.202-4.019.354-5.99.013-.046 0-.097 0-.145-.018-.426.287-.69.5-1.003.264-.216.475-.484.715-.72.13-.13.32-.404.478 0-.669 2.518-.567 5.07-.346 7.63.006.072-.016.142-.035.212-.565.653-1.045 1.382-1.756 1.898-.355-.076-.725-.097-1.05-.28Z"/><path fill="#2DD5E8" d="M1.616 34.667c-.228-.305.016-.468.19-.664.573-.64 1.14-1.287 1.708-1.93.368-.311.338-1.02 1.018-1.022-.267.963-.142 1.948-.123 2.919.012.601-.188.947-.737 1.126l-2.055-.429h-.001Z"/><path fill="#EBB961" d="M19.824 35.129c-.035 1.013.155 2.004.261 3.005.156 1.483-.105 2.97-.207 4.454-.045.655-.098 1.284.254 1.873l-.162.722c-.409.375-.524.91-.739 1.386-.17.38-.384.459-.725.24-.142-.196-.362-.063-.539-.132-.303-.118-.494-.284-.439-.646.352-2.3-.013-4.589-.12-6.881-.032-.68.028-1.3.38-1.883a.846.846 0 0 1 .152-.298c.468-.385.775-.916 1.2-1.344.202-.202.287-.568.685-.5l-.001.004Z"/><path fill="#D6B871" d="M17.953 37.168c.027.038.086.1.077.112-.736 1.03-.363 2.139-.255 3.234.05.503.046 1.018.007 1.521-.073.923.172 1.822.152 2.737-.005.192.033.408-.04.573-.313.718-.246 1.25.613 1.466l-2.05-.397c-.123-.2-.27-.373-.261-.645.064-1.98-.218-3.947-.295-5.92.004-.642.496-.998.846-1.439.45-.366.596-1.029 1.206-1.24v-.002Z"/><path fill="#C0B983" d="M16.032 39.634c.327.902.203 1.866.245 2.783.056 1.183.43 2.379.086 3.58-.033.12.06.276.094.416-.477-.086-.955-.172-1.433-.26-.145-.163-.308-.327-.28-.563.18-1.49-.256-2.973-.047-4.462a.794.794 0 0 1 .13-.32c.297-.284.614-.551.786-.94.104-.142.207-.285.42-.233v-.001Z"/><path fill="#AABA91" d="M14.866 40.94c-.02 1.296.03 2.59.16 3.88.044.447-.277.89 0 1.332l-.564-.112-.9-.294c-.408-.086-.59-.336-.63-.756-.064-.702-.087-1.394.15-2.07.265-.595.692-1.078 1.094-1.578.21-.168.356-.45.691-.403v.001Z"/><path fill="#FB9440" d="M31.333 17.66c-.518.018-1.027.75-1.508.2-.553-.637-.858-1.437-.621-2.333.042-.16.063-.325.093-.489l1.893-1.751.451-.088c.312.078.502.288.596.581.239.749.542 1.45 1.263 1.876.102.06.139.194.173.312.054.444.08.889.052 1.334-.077.168-.25.198-.363.128-.743-.46-1.382-.112-2.026.23h-.003Z"/><path fill="#366A93" d="M24.35 15.616c-1.14 0-2.282-.002-3.421.005-.495.003-.638-.135-.32-.59.206-.293.398-.612.394-.999 1.163-.11 2.313-.373 3.492-.286a1.508 1.508 0 0 0-.023 1.11c.083.246.016.522-.122.76Z"/><path fill="#FEDA6D" d="M49.86 14.155c-.348.021-.68.086-1.048.035-.702-.1-.802.633-1.158 1.005-.191.201-.211.531-.446.721-.154.069-.273-.012-.396-.086-.714-.585-1.545-.912-2.434-1.115-.705-.209-1.432-.33-2.131-.563-.336-.206-.84-.092-1.045-.548.077-.192.252-.286.406-.401.26-.196.509-.403.357-.78-.141-.345-.41-.537-.788-.537a6.77 6.77 0 0 1-1.579-.202c-.12-.03-.228-.084-.24-.231 3.378-.071 6.644.419 9.718 1.902.15.375.605.45.783.8h.002Z"/><path fill="#B3A27E" d="m59.298 15.634-3.205-.01c.08-.044.154-.109.24-.133.287-.082.685.144.859-.165.166-.297-.01-.676.032-1.03.054-.456-.544-.13-.695-.424.636-.01 1.274-.034 1.894.153.806.156 1.118.731.875 1.607v.002Z"/><path fill="#949A89" d="M59.298 15.633c-.16-.607-.064-1.353-.874-1.606.745-.041 1.453.179 2.174.31-.025.457.117.876.3 1.286l-1.602.01h.002Z"/><path fill="#FDC64D" d="M34.69 12.157c.998-.322 2.024-.492 3.068-.568.493.052 1.01-.02 1.424.373.57.538.531 1.121-.136 1.527-.267.162-.55.295-.805.476-.297.166-.622.263-.94.38-.622.169-1.22.491-1.899.313a.805.805 0 0 1-.296-.63c-.006-.657-.342-1.234-.416-1.871Z"/><path fill="#FBAA42" d="M34.69 12.157c.652.694.473 1.632.724 2.445-.46.554-1.15.833-1.635 1.36-.064.07-.18.018-.257-.054-.856-.487-1.237-1.292-1.493-2.194-.055-.192-.255-.345-.388-.516a12.136 12.136 0 0 1 3.05-1.04h-.001Z"/><path fill="#FDD15A" d="M38.18 13.873c.089-.226.316-.273.49-.394.302-.21.854-.207.733-.797-.122-.594-.575-.84-1.1-.984-.177-.048-.385.038-.547-.108l1.604-.134c.517.079 1.036.235 1.549.216.665-.025 1.177.174 1.318.813.157.72-.49.882-.988 1.1-.539.323-1.153-.084-1.698.181-.455.006-.886.348-1.36.108v-.001Z"/><path fill="#2DD9EA" d="M9.052 25.965c-.396.282-.555.804-1.02 1.016-.542-1.276-.533-2.556-.024-3.839l3.09-3.588c.421-.02.497.326.601.607.254.681.466 1.376.65 2.08-.092.561-.568.872-.857 1.307-.558.483-.93 1.138-1.482 1.627-.366.206-.433.777-.957.79h-.001Z"/><path fill="#2CA6F0" d="M4.53 31.05c-.47.212-.562.798-1.017 1.024.487-1.079.204-2.287.572-3.393.136-.406.435-.803.269-1.28.656-.84 1.328-1.67 2.078-2.43.157.903.086 1.805-.026 2.704-.07.56.029 1.17-.416 1.635l-1.461 1.74h.001Z"/><path fill="#27B7DF" d="M12.255 22.316c-.355-.64-.432-1.379-.708-2.049-.11-.268-.163-.562-.45-.714.674-.73 1.346-1.462 2.02-2.195.739.84.752 1.902.894 2.924.042.06.05.124.03.192-.397.6-.899 1.112-1.369 1.652-.106.122-.21.275-.415.189l-.002.001Z"/><path fill="#2EBFED" d="M5.991 29.31c.194-1.06.307-2.13.288-3.208-.006-.388.014-.766.154-1.13l1.574-1.83c-.212 1.28-.117 2.56.023 3.839l-.584.868c-.632.34-.855 1.09-1.455 1.461Z"/><path fill="#27BEEB" d="M10.781 44.914c-.16-.658.236-1.265.166-1.92-.239-2.212.117-4.424-.011-6.634-.056-.947.19-1.866.165-2.81-.016-.552-.129-1.046-.453-1.49-.194-.315.072-.481.23-.668.338-.4.658-.814.983-1.224.198-.183.368-.49.692-.175.457 1.008.427 2.084.322 3.134-.114 1.136-.102 2.267-.105 3.401-.006 1.546-.006 3.091-.108 4.635-.044.65.139 1.295.146 1.947-.287.95-.833 1.687-1.754 2.112-.158-.044-.261-.136-.27-.31l-.003.002Z"/><path fill="#87B89F" d="M11.051 45.224c.628-.573 1.14-1.245 1.648-1.922.106-.254.211-.51.563-.469-.216.736-.172 1.486-.146 2.24.012.354.241.487.445.673a10.473 10.473 0 0 1-2.51-.523v.001Z"/><path fill="#D58C64" d="M59.007 42.998a76.93 76.93 0 0 1-.296-.439l-.717-1.167c-.198-.15-.262-.343-.18-.58.285-1.112.252-2.253.322-3.386l.286-4.619.003-.29c.289.474.867.723 1.023 1.301.247 1.107.086 2.225.075 3.335-.018 1.72.112 3.446-.154 5.158-.04.263.045.611-.363.689l.001-.002Z"/><path fill="#E4655E" d="M60.292 45.127c-.279-.344-.317-.871-.774-1.08.008-.397-.24-.703-.386-1.045-.097-.156-.17-.333-.343-.414-.104-.527-.256-1.02-.809-1.238l-.134-.391c.076-.453-.142-.82-.53-.908-.454-.102-.544.378-.696.696-.063.13-.121.266-.16.406-.313 1.165-.821 2.27-1.091 3.447v5.097c-.162.475.333 1.088-.306 1.463.086.435.367.51.747.41.435-.094.871-.19 1.306-.282.298.058.572-.133.85-.108.846.077 1.085-.389 1.255-1.123.343-1.486.59-2.998 1.101-4.442.142-.171.051-.329-.029-.486l-.001-.002Z"/><path fill="#F37456" d="M57.846 40.96c-.171-.306-.283-.789-.64-.777-.351.01-.36.514-.471.816-.363.986-.703 1.981-1.044 2.975-.077.227-.118.467-.324.625 0-1.551.015-3.104-.008-4.656-.008-.48.116-.878.344-1.297.317-.584.562-.396.83-.007.192.277.345.582.533.864.094.138.216.277.41.26.24-.02.206-.228.24-.384.176-.803.24-1.615.287-2.435.082-1.383.171-2.77.42-4.137.113 2.237-.183 4.463-.175 6.699.002.464.088 1.07-.402 1.452v.001Z"/><path fill="url(#c)" d="M63.75 28.987c-.013-1.014-.062-2.034.21-3.03a20.677 20.677 0 0 0-3.931-1.018 2.12 2.12 0 0 1-.004-.136c-.977-.534-2.096-.593-3.127-.944a.235.235 0 0 0-.205.08c-.533.973-1.034 1.969-1.61 2.916-.403.661-.607 1.233.124 1.794.103.078.134.25.198.38 1.096 1.086 2.007 2.331 3.021 3.487.237.584.562 1.09 1.162 1.353.05.557.57.756.879 1.117.233.388.817.48.87 1.023.274.354.761.525.877 1.017l.922.994c.584.197.7-.175.677-.607-.147-2.808-.029-5.616-.064-8.424v-.002Z"/><path fill="#F67953" d="m67.45 21.327 1.025 1.287c.484.447.54.99.541 1.634.005 1.743-.25 3.476-.182 5.22.013.328.045.69-.283.926-.59.121-.81-.375-1.142-.686-.227-.524-.839-.702-1.094-1.202-.075-.355-.526-.52-.477-.937.255-.204.154-.49.156-.744.01-1.16.04-2.321-.006-3.478-.042-1.044.09-2.06.298-3.073.496.232.718.765 1.161 1.054l.003-.001Z"/><path fill="#D9AF6A" d="M63.136 38.02c.401-.028.655-.187.483-.634-.11-.283-.095-.567-.095-.855v-9.269c0-.481-.016-.972.437-1.303.538.273 1.124.495 1.31 1.163-.37.526-.211 1.115-.185 1.68.104 2.242.152 4.48.034 6.724-.062 1.148.126 2.31.067 3.466-.016.3.12.71-.367.819-.545-.332-.763-.983-1.294-1.328-.073-.203-.388-.2-.39-.463Z"/><path fill="#AEA881" d="M64.82 39.81c.262-.233.167-.545.154-.821-.146-2.98.097-5.962-.059-8.944-.045-.852-.195-1.715-.09-2.581.04-.317.046-.552.446-.342l.567.445c.141.33.572.46.598.869-.289.354-.204.78-.206 1.18-.006 3.5-.008 7-.006 10.5 0 .316.183.761-.378.849-.432-.304-.674-.778-1.027-1.153l.001-.001Z"/><path fill="#CF7E65" d="M22.747 31.51c-.212-.36-.2-.758-.127-1.135.318-1.644-.074-3.269-.137-4.9-.015-.36.122-.784-.174-1.115-.258-.003-.51.017-.738.154-.406.024-.79.13-1.162.288-.603.197-.578.674-.565 1.182.064 2.491.088 4.984.076 7.477-.001.359-.058.744.349.956.45-.294.724-.74 1.016-1.172.525-.547 1.07-1.077 1.46-1.738l.002.002Z"/><path fill="#C18E72" d="M20.41 24.803c-.56.414-.309.976-.3 1.512.026 1.494.015 2.989.007 4.482-.004.975.283 1.948.009 2.929-.066.235.023.477.143.693-.149.237-.298.473-.445.71-.282.106-.36.417-.581.583-.31-.296-.363-.69-.333-1.077.225-2.834.044-5.671.105-8.507.008-.36-.038-.736.23-1.04l.875-.303.29.018Z"/><path fill="#B29879" d="M59.584 33.826c.22.442.788.621.883 1.16-.623.401-.321 1.038-.25 1.499.162 1.042.026 2.075.1 3.108.094 1.288-.27 2.565-.03 3.864.101.55-.187 1.135-.115 1.719l-.731-1.159c-.146-.34-.29-.679-.437-1.019.231-.66.26-1.354.28-2.034.041-1.54-.07-3.087.046-4.618.064-.843-.26-1.704.115-2.528a.85.85 0 0 0 .134.008h.005Z"/><path fill="#F37C56" d="M31.333 17.66c.66-.964 1.48-.681 2.313-.296a.23.23 0 0 1 .07.203c-.426 1.176-.888 2.34-1.315 3.516-.09.25-.186.5-.456.621a1.45 1.45 0 0 1-1.186-.134c-.417-.244-.862-.407-1.314-.559-.152-.972.167-1.738.945-2.352.356-.28.63-.663.943-.999Z"/><path fill="#DB675A" d="M29.443 21.013c.328-.117.633-.124.924.121.46.389 1.005.514 1.597.469 0 1.07-.462 1.995-.924 2.919-.092.025.032.013-.064.029-.573.092-1.191.074-1.533.684V21.013Z"/><path fill="#C25D59" d="M29.445 25.232c.103-1.007.818-.787 1.455-.725.14.45-.092.845-.202 1.25-.187.694-.457 1.362-.655 2.052-.058.205-.12.422-.37.488-.468-.64-.122-1.372-.237-2.05.003-.338.006-.676.007-1.013l.002-.002Z"/><path fill="#FDF7E8" d="M36.432 39.938c-1.364.002-1.786-.45-1.91-1.817-.064-.708-.27-1.416-.506-2.092-.14-.4-.216-.782-.208-1.194-.08-.273.084-.474.238-.643.835-.918 1.594-1.946 2.951-2.151.83-.237 1.679-.357 2.531-.449.346-.036.721-.084 1.016.199-.223 1.551-.002 3.119-.155 4.673-.159.467-.112.953-.124 1.432-.007.33-.074.63-.413.778-1.017.439-2.043.858-3.07 1.278a.41.41 0 0 1-.35-.017v.003Z"/><path fill="#FDE2A5" d="M36.859 32.256c-1.453.348-2.216 1.507-3.052 2.582-.102.16-.205.317-.308.476-.377-.115-.294-.458-.346-.724-.1-.5-.177-1.001-.185-1.512.615-1.776 1.745-3.132 3.368-4.08.83-.446 1.66-.898 2.543-1.213.796-.287 1.065-.764 1.005-1.582a19.211 19.211 0 0 1 .006-2.528c.013-.224-.134-.688.419-.548.252.792.098 1.602.122 2.403 0 1.517.072 3.035-.04 4.55-.085.386-.431.486-.721.647-.935.517-1.956.873-2.813 1.53h.002Z"/><path fill="#FCE8C9" d="M36.432 39.938c1.034-.442 2.058-.908 3.105-1.317.43-.168.572-.397.554-.85-.014-.392-.147-.816.12-1.187.26.242.228.566.233.873.018.837 0 1.675-.016 2.513.017.296.012.591-.081.877-.826.749-1.876 1.137-2.807 1.718-.277.172-.546.409-.912.388-.07-.018-.181-.061-.172-.107.159-.88-.342-1.497-.825-2.123a.39.39 0 0 1-.071-.201l.872-.584Z"/><path fill="#FCDCA6" d="M35.56 40.523c.674.331.773 1.07 1.14 1.62.161.243-.12.467-.101.713.074.11.283.022.306.21-.763.346-1.185 1.073-1.785 1.605a.483.483 0 0 1-.214 0c-.524-.3-.607-.835-.661-1.347-.054-.52-.218-.964-.572-1.342.056-.709.186-1.4.494-2.157.13.895.594 1.128 1.394.698h-.001Z"/><path fill="#233056" d="m33.115 32.946.385 2.367.6 3.773c-.512-.882-1.024-1.756-1.183-2.777-.384-.844-.543-1.762-.625-2.655-.118-1.29-.645-2.238-1.734-2.899-.376-.611-.96-1.12-.978-1.915l.085-.135c.217-.01.38.118.485.271.646.944 1.533 1.559 2.594 1.948.381.628.511 1.3.373 2.023l-.002-.001Z"/><path fill="#FBA159" d="M34.089 49.26c-.434-.037-.634-.363-.886-.657-.224-.26-.412-.61-.826-.643l.732-3.485c.42-.016.472.324.584.603.28.686.455 1.402.577 2.132-.022.688.224 1.398-.181 2.05Z"/><path fill="#FCC87F" d="m34.087 47.083-.574-1.966c-.072-.252-.138-.51-.405-.642l.563-2.493c.587.127.689.574.724 1.076.04.572.123 1.134.595 1.541.177.288-.011.511-.146.73-.202.333-.375.674-.47 1.054-.103.23-.052.524-.288.699l.001.001Z"/><path fill="#81A8BD" d="M30.637 30.599c.022.01.047.016.066.029 1.03.706 1.733 1.559 1.754 2.923.013.921.296 1.838.46 2.756-.29 0-.22-.329-.395-.432-.033-.732-.258-1.407-.598-2.048.05-.91-.626-1.477-1.023-2.178.034-.38-.58-.6-.264-1.05Z"/><path fill="#8FA18C" d="M65.848 40.965c.136-.071.217-.154.211-.335-.13-3.855-.029-7.71-.048-11.565 0-.256-.223-.77.426-.63.26.465.905.58 1.043 1.154-.316.404-.379.871-.387 1.369-.047 2.637-.196 5.273-.139 7.913.018.798.23 1.59.12 2.39-.038.272.048.711-.494.574-.055-.048-.109-.098-.165-.146l-.567-.725v.001Z"/><path fill="#D2A389" d="M49.565 25.517c.545 1.068.864 2.213 1.148 3.37.137.264-.009.389-.23.477-.283-.005-.408.205-.553.398-.434.575-1.048.9-1.69 1.175-.27.117-.563.187-.73-.183-.09-.283-.078-.57-.03-.853.163-.98.128-1.953-.05-2.927-.057-.325-.16-.656-.01-.988.636-.52 1.34-.724 2.145-.468v-.002Z"/><path fill="#FB7C49" d="M48.661 22.621 47.948 21c-.44-.43-.565-.968-.545-1.557.314-.564.828-.923 1.333-1.289.206-.149.422-.24.658-.058.486.291.642.912 1.166 1.166.264.293.344.637.289 1.021-.279.155-.49.377-.623.663-.337.733-1.095 1.068-1.565 1.674v.001Z"/><path fill="#E0A578" d="M50.433 29.306a.457.457 0 0 0 .28-.417c.374.556.558 1.223 1.007 1.735.102.236.205.474.305.71-.894.039-1.786-.101-2.68-.031-.062-.037-.147-.092-.125-.155.25-.714.552-1.397 1.213-1.842Z"/><path fill="#FCD1A6" d="M37.593 63.241c-.3-.747-.1-1.525-.132-2.288-.038-.89 0-1.782-.302-2.64.981-.514 2.004-.659 3.078-.346.158.569.05 1.15.053 1.725.006 1.277-.15 2.546-.206 3.82-.258.589-.743.533-1.219.386a4.566 4.566 0 0 1-1.272-.657Z"/><path fill="#FCBC8B" d="M37.593 63.24c.445-.093.734.25 1.087.403.419.183.814.273 1.23.025.213.17.234.416.234.655 0 1.034.07 2.067-.044 3.097-.128.51-.505.784-.962.606-.71-.277-1.093-.117-1.258.612-.252-.416-.086-.878-.14-1.315-.03-.251.07-.526-.136-.745l-.01-3.336-.001-.002Z"/><path fill="#1C2758" d="M40.188 58.011c-1.026-.07-2.022.171-3.029.301a.229.229 0 0 0-.138-.023c.232-.498.836-.501 1.161-.873.494-.578 1.172-.82 1.868-1.035.377-.032.673.187.999.315.211.101.42.206.63.311.172.092.34.194.504.3.219.182.551.227.66.542-.021.132.316.105.137.307-.213.211-.492.162-.752.194-.682-.104-1.395-.025-2.043-.34l.003.001Z"/><path fill="#F96A40" d="M40.188 58.012c.716-.117 1.405.115 2.109.162.442.017.557.258.516.674-.12 1.23-.317 2.45-.68 3.626-.14.455.035.919-.174 1.345l-.297 1.902c-.129.303-.066.623-.054.931.019.479-.086.91-.342 1.312-.286.45-.582.893-.724 1.419-.064.238-.18.46-.493.442a.483.483 0 0 1-.251-.275c-.15-.66-.129-1.31.114-1.947l-.003-3.934c.058-1.676.114-3.35.178-5.025.009-.212.066-.422.1-.632Z"/><path fill="#F35E40" d="M40.074 69.791c.417-1.229 1.59-2.153 1.458-3.606-.015-.165-.02-.34.13-.464-.032 1.197-.07 2.393-.094 3.59-.004.258-.062.528.08.773-.067 1.283.146 2.533.475 3.766.079.686.433 1.354.136 2.064-.399.17-.572-.14-.753-.38a8.78 8.78 0 0 1-1.015-1.745 10.318 10.318 0 0 1-.611-3.183c-.01-.284-.05-.587.194-.816v.001Z"/><path fill="#557789" d="M41.96 63.819c-.025-1.308.31-2.569.49-3.849.063-.45.114-.903.206-1.347.067-.327-.22-.318-.36-.448.23-.004.457-.01.685-.016.21.172.471.216.722.283-.477 1.207-.646 2.525-1.354 3.649-.327.521-.089 1.19-.388 1.728Z"/><path fill="#4695A5" d="m14 20.428.008-.145c.531-.582 1.067-1.162 1.592-1.748.349-.388.622-.858 1.163-1.026-.297 1.071-.168 2.17-.112 3.246.054 1.06.086 2.106-.018 3.164-.056.576-.01 1.162-.01 1.744-.303.462-.969.489-1.223 1.011-.337.298-.454.975-1.144.669-.416-.527-.453-1.155-.47-1.785-.04-1.447.082-2.896-.08-4.34-.037-.323.141-.548.293-.792v.002Z"/><path fill="#8DB8A1" d="M19.243 33.43c.007-2.78.001-5.56 0-8.341-.339.047-.677.095-1.017.141-.051.052-.104.101-.155.152-.394.061-.798.082-1.159.277l-.289.003c-.496.206-1.036.343-1.316.875.073.313.02.624-.009.937-.1 1.062-.126 2.132-.015 3.187.235 2.221-.018 4.438.036 6.657.02.855-.231 1.74.2 2.564.062.08.138.098.229.05l.286-.3c.197-.46.604-.76.874-1.166l1.045-1.3.122-.155c.54-.299.767-.878 1.17-1.3-.21-.76-.002-1.522 0-2.283l-.002.002Z"/><path fill="#FDE7C2" d="M34.087 47.083c.069-.248-.068-.537.15-.753.284.273.196.63.202.959.022 1.057-.022 2.115.035 3.319.503-.534.795-1.04 1.236-1.409.514-.43.848-.427 1.18.145.472.813.69 1.745 1.125 2.585.159.306-.038.66-.21.958-.31.529-.9.647-1.371.94a.614.614 0 0 1-.293.092c-.399-.19-.319-.668-.581-.956-.403-.44-.79-.718-1.321-.204-.143-1.162-.112-2.332-.15-3.498l-.003-2.178h.001Z"/><path fill="#FCEBC7" d="m36.14 53.918.17-.155c.913-.315 1.84-.585 2.799-.72.403-.058.819-.15 1.178.155.283.974.154 1.959.087 2.943-.01.145-.11.265-.254.33l-1.936.945c-.483-1.281-1.085-2.494-2.043-3.498Z"/><path fill="#FDFAF4" d="M32.635 30.972c-1.408-.209-2.113-1.337-2.97-2.268l.009-.407c.408-1.264.817-2.527 1.227-3.79.455-.932.714-1.936 1.064-2.906.423-1.098.84-2.197 1.273-3.29.114-.287.277-.555.419-.832.18-.255.462-.32.74-.386.858-.208 1.71-.436 2.568-.643.92-.21 1.826-.473 2.742-.702.222-.01.437.01.593.196.283 1.141.131 2.294.095 3.443-.153.722-.637 1.011-1.339 1.109-1.2.166-2.374.474-3.525.858-.49.163-.81.466-1.016.955-.593 1.404-1.279 2.772-1.566 4.289-.148 1.114-.037 2.23-.076 3.345-.013.356.064.737-.235 1.03l-.003-.001Z"/><path fill="#ECD7B8" d="M30.637 30.599c-.047.417.533.6.392 1.05a5.424 5.424 0 0 0-3.078-.17c.424-.953 1.032-1.792 1.628-2.64l1.058 1.759v.001Z"/><path fill="#F5F2EA" d="M27.953 31.479c1.063-.606 2.086-.502 3.078.17.406.447.842.876.965 1.504.045.229.154.47-.07.674l-.323-.426c-.51-.36-.883-.856-1.302-1.304-.553-.32-1.15-.112-1.726-.146-.264.056-.523.225-.797.038-.092-.221.06-.359.177-.509l-.002-.001Z"/><path fill="#413B49" d="M27.776 31.988c.262-.1.529-.077.797-.038-.338.307-.664.612.037.876.117.212.243.425.252.673.045 1.23.822 1.774 1.898 2.056.275.073.653.013.707.448l-.007.002c-2.004.157-2.61-.29-3.08-2.263-.126-.526-.205-1.084-.736-1.402l.134-.35-.002-.002Z"/><path fill="#202E5E" d="m50.433 29.306-1.19 1.864c0 .099-.013.208-.086.267-.93.744-.936 1.776-.882 2.827-.063.302-.033.665-.466.73v-1.043l-.18-.014c-.477 1.719-.592 3.554-1.55 5.12-.162-.098-.194-.26-.214-.428.015-.65.201-1.27.33-1.899.352-1.426.572-2.876.808-4.324.098-.542.044-1.15.654-1.463.975-.264 1.791-.759 2.385-1.598.055-.077.219-.563.394-.038l-.003-.001Z"/><path fill="#816376" d="M47.507 45.76c-.244.678-.483 1.36-.737 2.035-.069.183-.205.393-.405.366-.268-.035-.151-.306-.169-.48-.077-.735.143-1.488-.136-2.212-.376-.498-.213-1.05-.166-1.591.222-.44.655-.72.876-1.163.281 1.005.655 1.99.737 3.044Z"/><path fill="#A57A77" d="M46.77 42.715c.089.571-.267.822-.718 1.007a.527.527 0 0 1-.19-.315c-.13-.731-.38-1.45-.244-2.212.115-.594.028-1.196.073-1.791.022-.286-.079-.647.334-.772l.05.423.695 3.659v.001Z"/><path fill="#1D223B" d="M47.806 34.994c.212-.203.295-.455.289-.741.115-.226.118-.529.423-.626a.288.288 0 0 1 .184.036c.146.212.396.29.583.451.113.588-.414.882-.608 1.328a.789.789 0 0 1-.424.423c-.214.257-.138.578-.196.87-.175-.423-.23-.874-.285-1.323l.034-.415v-.003Z"/><path fill="#C14C4A" d="m42.11 75.905.016-2.056c.44.836.79 1.73 1.55 2.357.642.604 1.25 1.268 2.225 1.301.465.234.38.62.28 1.009-.296.007-.6-.025-.862.156-.531-.082-1.092.158-1.604-.143.69-.452.696-.492.023-.94-.478-.32-.951-.643-1.332-1.081-.149-.172-.384-.311-.295-.603h-.001Z"/><path fill="#2B6789" d="m46.043 45.915.007 4.943a2.637 2.637 0 0 0-.197 1.51c.095.545.067 1.004-.52 1.262-.122.054-.228.176-.303.292-.14.219-.344.414-.575.36-.302-.07-.298-.39-.296-.658 1.046-.826 1.38-1.864.79-3.08-.615-1.266-.726-2.571-.567-3.94.059-.502.028-1.016.078-1.522.021-.223.105-.44.334-.523.25-.092.401.097.551.257.303.323.507.707.698 1.1Z"/><path fill="#477488" d="M46.043 45.916c-.398-.225-.544-.667-.842-.98-.112-.117-.166-.344-.37-.252-.153.067-.221.257-.224.432-.01.65-.01 1.298-.018 1.947-.004.337-.007.667-.099 1.003-.095.343-.042.681.127 1.042.327.693.58 1.427.803 2.161.271.894-.441 2.178-1.26 2.356l-.45-.285-.047-.114c.137-1.405.346-2.808.273-4.226.046-.315-.329-.495-.265-.816.416-.832.307-1.751.426-2.633.046-.334.056-.674.111-1.01.068-.401.122-.769.675-.746.221.01.359-.23.538-.347.188-.123.387-.366.599-.023.01.098.02.197.032.294l.008 1.748-.017.446v.003Z"/><path fill="#1A2452" d="M40.237 53.194c-1.013-.102-1.96.25-2.928.442-.334.066-.66.128-.998.127.434-.276.866-.552 1.3-.826.748-.69 1.578-1.238 2.584-1.477.428.055.804.25 1.185.433.29.167.591.311.893.454.258.142.526.269.77.435.224.18.536.248.682.53l-.014.026c-.098.189-.283.127-.437.154-.153.162-.35.153-.548.14-.227-.037-.447-.1-.676-.126-.374-.082-.749-.152-1.136-.118-.243-.005-.486-.016-.677-.197v.003Z"/><path fill="#5E5B75" d="M42.692 53.475c.194.005.388.013.582.019.262.423.15.893.14 1.34-.017.81-.083 1.622-.145 2.432-.02.266-.09.532-.424.586a316.22 316.22 0 0 0-.732-.434c.286-.35.38-.752.367-1.2a45.886 45.886 0 0 1 0-2.008c.006-.261-.002-.531.21-.735h.002Z"/><path fill="#FCA070" d="m39.912 67.603.023 2.034c.09.13.061.278.063.42.01.8-.128.965-.906.9-.371-.031-.657.048-.916.293l-.13-.02-.166-2.595.013-.435c.02-.772.085-.815.787-.49.434.2.861.367 1.232-.109v.002Z"/><path fill="#FC8C55" d="M49.394 18.097c-.57 0-.857.479-1.26.758-.235.163-.439.368-.656.554-.381-.036-.381-.383-.497-.627-.203-.43-.306-.918-.728-1.217-.438-.845.254-1.276.664-1.81l.29.16 1.893 1.746c.098.144.196.29.292.435l.002.001Z"/><path fill="#DFDAD3" d="M31.466 36.003c-.143-.242-.406-.23-.63-.282-1.745-.404-2.07-.823-2.226-2.894.39.06.373.388.42.66.193 1.116.906 1.691 1.962 1.93.338.078.73.06.919.447l-.445.139Z"/><path fill="#D1DCDC" d="M31.218 33.403c-.118.237.102.437.114.697-.81-.013-1.083-.506-1.203-1.157.489-.368.814-.23 1.089.46Z"/><path fill="#3E4D5E" d="M31.218 33.402c-.32-.257-.514-.807-1.089-.46l.172-.846c.597.271.984.753 1.302 1.303-.127.089-.255.096-.385.003Z"/><path fill="#2B2F56" d="M48.555 35.48c.013-.573.689-.821.687-1.4.03-.498.607-.783.517-1.327-.092-.288-.288-.578.022-.855.839-.313 1.677-.302 2.513.006.225.135.175.394.264.59-.23.319-.339.675-.401 1.062-.102.642-.298 1.262-.647 1.815-.317.5-.714.905-1.39.787-.501-.083-1.037.163-1.514-.158.079-.362.385-.417.667-.443 1.221-.117 1.8-.863 2.02-2.074-.466 1.607-1.358 2.237-2.737 1.998l-.001-.002Z"/><path fill="#E0D9D1" d="M52.292 31.903c-.865.061-1.755-.216-2.596.193-.503.443-.67 1.13-1.146 1.593-.151.189-.303.376-.455.564-.194-1.242 0-2.34 1.146-3.084.937-.095 1.878-.244 2.784.165l.267.569Z"/><path fill="#F2C095" d="M50.118 36.156c1.464-.433 1.655-1.691 1.904-2.919.065-.318-.035-.779.535-.744.071.149.144.298.217.447.076.662-.166 1.268-.333 1.888l-.72 1.035c-.291.24-.583.483-.873.724-.187-.24-.812.26-.73-.432v.001Z"/><path fill="#E2D2C3" d="M48.555 35.479c.331-.065.667-.114.994-.194.798-.197 1.264-.726 1.513-1.496.085-.26.056-.575.29-.799.417 1.156-.494 2.509-1.815 2.728-.323.054-.686-.026-.931.282l-.352-.136c-.007-.213.212-.247.3-.384v-.001Z"/><path fill="#FC895D" d="M38.176 71.253c-.026-.404.07-.651.568-.574 1.168.183 1.17.171 1.193-1.04.046.05.093.1.138.151-.086 1.4.267 2.737.585 4.078-.19.377-.475.225-.732.114-.436-.191-.883-.355-1.32-.54a1.361 1.361 0 0 1-.134-.015c-.09-.726-.322-1.433-.297-2.174Z"/><path fill="#F86B4A" d="M38.607 73.44c.51-.218.85.224 1.271.34.263.072.492.296.782.087.511.66.75 1.512 1.45 2.037.499.705 1.186 1.194 1.894 1.664.226.15.615.235.508.606-.106.368-.477.35-.797.356l-.573-.009a1.662 1.662 0 0 0-1.02-.44c-.345-.354-.727-.656-1.183-.859l-.868-.732-1.15-1.906-.314-1.14v-.003Z"/><path fill="#975477" d="M71.544 26.092c.609.426 1.003 1.045 1.445 1.618-.228.434-.174.896-.102 1.346.159 1.005.124 2 .004 3.01-.095.81-.032 1.637-.047 2.456-.004.25.088.56-.307.623-.727-.531-1.118-1.388-1.85-1.914l-.048-.27c.394-.048.567-.24.54-.664-.11-1.779.203-3.547.146-5.327-.01-.305-.045-.633.218-.878h.001Z"/><path fill="#D36A64" d="M69.667 32.06c-.257-.552-.743-.901-1.164-1.307-.117-.112-.228-.229-.196-.413.346-.047.327-.308.312-.552-.103-1.84.189-3.669.171-5.508-.006-.597.075-1.163-.315-1.668.508.267.665.885 1.165 1.16.195.291.392.58.588.87.254.844.277 1.721.197 2.573-.13 1.375-.097 2.747-.13 4.122-.008.33.103.744-.374.893-.085-.057-.17-.112-.255-.17h.001Z"/><path fill="#B7616E" d="M69.921 32.23c.16-.116.156-.287.156-.458.005-1.737-.017-3.473.133-5.209.054-.633-.18-1.28.016-1.92.488.283.718.826 1.166 1.148l.15.3c-.05 2.142-.1 4.284-.159 6.425-.007.257.133.602-.091.753-.28.19-.387-.293-.654-.31l-.718-.73.001.001Z"/><path fill="url(#d)" d="M72.639 35.046a13.86 13.86 0 0 1-.97-1.059c-.248-.293-.449-.683-.888-.747a.749.749 0 0 0-.015-.197c-.162-.417-.525-.662-.819-.966a1.123 1.123 0 0 0-.296-.174c-.108-.696-.68-.986-1.221-1.301l-.123-.259-.828-.753c-.8-.172-.56.536-.576.816-.077 1.343-.092 2.69-.147 4.035a60.577 60.577 0 0 0 .11 6.69c.018.253.155.612-.286.705l1.167 1.31.699.827a.46.46 0 0 0 .122.422c.24.265.244.61.348.92.378.06.597-.126.715-.463l.597-1.708c.55-.858.775-1.853 1.157-2.78.613-1.486 1.175-2.993 1.759-4.492.081-.428-.326-.558-.504-.826h-.001Z"/><path fill="#4FC3C5" d="M11.954 30.323c-.376.623-1.007 1.056-1.306 1.738l-.433.305c-.426.155-.45-.195-.479-.43-.178-1.422-.28-2.85-.14-4.28.06-.604.098-1.206.104-1.812.002-.275.08-.526.224-.758.502-.52.84-1.19 1.453-1.61a.506.506 0 0 1 .167.459c-.198 1.786.262 3.548.203 5.328-.011.368.123.71.206 1.06h.001Z"/><path fill="#50D1CE" d="M9.924 25.086c.105 1.427-.17 2.84-.165 4.267.005.898.235 1.772.168 2.67-.014.198.083.32.288.344-.486.534-.97 1.069-1.457 1.603-.541-.91-.233-1.93-.338-2.894-.047-.427.058-.91.039-1.364-.056-1.293.112-2.543.593-3.747.357-.227.456-.711.874-.878l-.002-.001Z"/><path fill="#AABA91" d="M14.987 40.8c.113-.356.413-.575.613-.866h.146c-.163.366-.35.713-.759.864v.001Z"/><path fill="#2DD8E3" d="M15.529 35.737c-.028-1.214.075-2.459.06-3.688-.02-1.66-.307-3.318.008-4.98.046-.236-.061-.425-.289-.532-.278.307-.503.666-.868.887-.385.256-.809.49-.702 1.01h-.028c-.69.26-1.084.784-1.31 1.46.157.753.305 1.503.297 2.281-.01 1.206-.198 2.4-.165 3.61.046 1.608.088 3.225-.04 4.824-.075.933.04 1.804.207 2.694l.563-.468 1.042-1.422.56-.472.122-.144c.235-.267.534-.488.613-.865-.295-1.39-.041-2.8-.073-4.196l.003.002Z"/><path fill="#FBAE60" d="m37.009 16.619-3.354.861a.757.757 0 0 0-.009-.115c-.219-.47-.095-.97-.124-1.455.644-.418 1.126-1.069 1.892-1.308l1.891-.435a5.18 5.18 0 0 1-.296 2.452Z"/><path fill="#FBAB76" d="M46.919 15.756c-.072.405-.346.71-.552 1.042-.16.26-.201.458-.018.696-.472.274-.894-.069-1.342-.107-.498-.217-1.098-.185-1.512-.613-.174-.725.173-1.347.42-1.98.076-.193.274-.339.527-.193.949.121 1.794.464 2.477 1.155Z"/><path fill="#FCD79C" d="m40.208 15.922-.57-.008c-.463-.75-.524-1.524-.142-2.325.58-.305 1.162-.025 1.742-.006.292.26.745.139 1.022.433a.482.482 0 0 1 .108.464c-.19.616-.156 1.257-.229 1.885-.725.211-1.33-.11-1.93-.443Z"/><path fill="#FCC58F" d="M42.116 16.344c-.415-.804.087-1.551.144-2.326.742.141 1.486.275 2.182.583-.212.012-.375.104-.42.318-.133.624-.451 1.202-.445 1.858-.578.165-1.066.02-1.46-.432l-.001-.001Z"/><path fill="#FCD07B" d="M39.496 13.589c-.024.78-.018 1.556.142 2.325-.851.331-1.74.52-2.629.705-.016-.83.036-1.654.296-2.452l.876-.295c.44-.095.877-.19 1.316-.283h-.001Z"/><path fill="#4CB5BA" d="m13.71 28.433-1.31 1.46c-.2.09-.338.246-.446.43-.351-.17-.437-.464-.433-.835a28.79 28.79 0 0 0-.286-4.297c-.08-.586.194-1.135.142-1.714.291-.387.585-.774.877-1.16.637-.579 1.066-1.35 1.745-1.89-.267.497.007.992.005 1.486-.008 1.212.008 2.422-.006 3.633-.01.669.13 1.292.44 1.88l-.73 1.01.002-.003Z"/><path fill="#F6D594" d="M40.227 40.087c-.006-1.168-.012-2.335-.016-3.501 0-1.347.006-2.696-.004-4.043-.002-.302.016-.573.3-.752.485-.344.955-.245 1.419.049.36.324.53.735.544 1.214.063 1.948-.154 3.888-.207 5.832-.121.338-.391.295-.648.226-.43-.112-.664.063-.822.454-.1.248-.18.565-.566.523v-.002Z"/><path fill="#1F2753" d="M41.82 31.93c-.425-.16-.868-.166-1.314-.14-1.25-.104-2.438.263-3.647.466-.098-.047-.37-.044-.066-.209 1.128-.617 2.22-1.307 3.438-1.75.383-.16.667.14 1.003.208.5.24.992.495 1.496.731.308.174.634.305.959.44.236.1.486.205.495.528a.357.357 0 0 1-.18.137c-.753 0-1.49-.092-2.182-.412h-.001Z"/><path fill="#FEF5DA" d="M32.794 26.4c.286-1.613 1.106-3.027 1.68-4.532.127-.334.406-.473.699-.586a16.268 16.268 0 0 1 3.847-.975c.575-.075.938-.277 1.188-.762a.48.48 0 0 1 .158.214c.137.93.067 1.864.05 2.797-.017.182-.049.36-.206.483-.276.899-.168 1.829-.107 2.728.082 1.188-.107 2.008-1.448 2.335-.827.201-1.582.7-2.37 1.065-.671-.086-.973-.692-1.432-1.06-.693-.561-1.477-1.015-2.062-1.707h.003Z"/><path fill="#FCBE77" d="M46.622 23.774c-.744-.295-1.41.104-2.097.256-1.235.272-2.278 1.058-3.51 1.354-.258.063-.506.163-.78.146l-.026-2.49.014-.426a.907.907 0 0 1 .437-.242c1.35-.256 2.655-.714 4.024-.882.348-.042.677-.066.921.251.45.623.766 1.312 1.014 2.035l.003-.002Z"/><path fill="#FDECBD" d="M32.794 26.4c1.014.493 1.778 1.316 2.649 1.999.3.233.563.51.845.767-.619.565-1.33 1.022-1.894 1.656-.345.386-.657.773-.73 1.299-.051.37-.348.563-.549.825-.184-.652-.197-1.345-.48-1.974.004-1.245.01-2.491.013-3.738 0-.287-.019-.576.147-.835h-.001Z"/><path fill="#162351" d="M36.84 43.05c-.103-.039-.275.013-.243-.193.996-.435 1.879-1.069 2.83-1.578.251-.134.527-.225.793-.336.738-.004 1.253.545 1.9.767.358.198.687.45 1.07.607.258.207.737.208.671.718a.55.55 0 0 1-.306.12c-.303.018-.584-.091-.879-.126-.255-.04-.5-.143-.766-.121-.194.003-.388-.01-.583.004-.367 0-.737.01-1.1-.055-.879-.209-1.699.208-2.554.242-.282.012-.566.139-.833-.05Z"/><path fill="#EFBA80" d="m42.078 41.857-1.858-.914c.001-.286.004-.57.006-.856.096-.101.22-.187.284-.304.368-.674.902-.913 1.603-.717.327.062.526.24.548.587-.043.549-.014 1.1-.062 1.648-.027.293-.02.679-.52.556h-.001Z"/><path fill="#FCF3DE" d="M36.84 43.05c.855-.15 1.71-.313 2.568-.444.269-.041.565-.168.818.07.224.283.224.621.217.956-.02.88.067 1.764-.057 2.641-.079.32-.36.425-.605.574-1.009.607-2.079 1.115-2.998 1.867-.539.325-.767.056-.818-.457-.04-.41-.143-.812-.157-1.223a2.65 2.65 0 0 0-.5-1.49c-.2-.28-.352-.581-.182-.939.444-.661.794-1.421 1.715-1.556h-.001Z"/><path fill="#FDEFD2" d="M35.125 44.605c.071.383.255.697.476 1.022.532.79.429 1.74.534 2.633.055.464.166.673.588.269 1.045-.288 2.08-.628 3.183-.625.248.036.517.089.517.397 0 1.033.118 2.07-.085 3.097-.015.074-.08.118-.13.17-.957.284-1.705.967-2.6 1.368.27-.54.389-1.005-.078-1.58-.442-.546-.426-1.36-.814-1.978-.253-.401-.48-.474-.835-.093-.36.39-.734.761-1.017 1.215-.097.153-.122.456-.335.409-.26-.059-.277-.355-.278-.599-.005-.65 0-1.303-.003-1.954l-.012-2.027c.022-.676.616-1.103.753-1.73.045.004.09.005.134.006h.002Z"/><path fill="#E18C62" d="M46.333 26.108c.358-.105.593-.49 1.016-.44l.152.296c.368 1.649.334 3.311.152 4.978-.346.407-.39.92-.49 1.413-.399.022-.586-.292-.778-.542-.35-.452-.746-.858-1.155-1.255-.368-.44-.846-.744-1.309-1.068-.21-.225-.24-.48-.07-.727.696-1.007 1.277-2.125 2.482-2.658v.003Z"/><path fill="#F4CCAB" d="M48.661 22.622c-.112-.605-.12-1.253-.683-1.673h-.045l-.454-1.538c-.286-.315-.324-.744-.508-1.108-.159-.314-.17-.724-.622-.808l-1.332-.259c-.56.659-1.127 1.306-1.756 1.908-.419.4-.997.585-1.324 1.077.065.149.2.203.34.245 1.118.34 2.219.733 3.322 1.121a.32.32 0 0 0-.071.156c.258.727.702 1.37.954 2.1.285.613.457 1.266.698 1.893.074.123.128.275.322.228.678-.194 1.35-.413 2.064-.447l-.903-2.895h-.002Z"/><path fill="#FCD08C" d="M41.97 20.136c.858.294 1.712.603 2.577.873.4.125.743.324 1.063.582 0 .05 0 .1-.002.15-1.05-.23-2.012.171-3.002.395-.79.178-1.588.32-2.382.478 0-.969.002-1.936.003-2.905.69-.303 1.229.014 1.743.429v-.002Z"/><path fill="#F19855" d="m40.237 53.194.707.01c.596.024.754.412.788.923.05.778-.073 1.544-.167 2.31-.033.273-.124.543-.509.42-.374.023-.59-.34-.935-.385.218-1.087-.022-2.189.116-3.278Z"/><path fill="#8A696B" d="M42.692 53.474c0 1.083-.007 2.167.006 3.25.006.419-.08.723-.585.693l-.464-.267c.19-1.036.293-2.078.255-3.133-.009-.24.022-.479.197-.67.216-.044.407.02.59.127h.001Z"/><path fill="#C17C62" d="M42.102 53.347c0 1.073.084 2.147-.124 3.215-.048.252-.087.465-.328.59-.213-.067-.432-.124-.594-.295.139-.042.296-.076.31-.254.066-.887.218-1.767.166-2.662-.024-.405-.294-.57-.588-.737.4-.063.78.027 1.158.145v-.002Z"/><path fill="#FAE2C2" d="M41.97 20.136c-.593-.094-1.115-.477-1.743-.43l-.017-.16v-3.622c.666 0 1.249.38 1.905.42.486.145.974.29 1.46.432.48.152.991.212 1.442.458-.663 1.339-1.66 2.325-3.047 2.902Z"/><path fill="#D4BE90" d="M46.026 38.632c-.275.587-.057 1.208-.129 1.81-.032.27.11.573-.15.8-.215.02-.374-.108-.543-.206-.515-.324-1.105-.513-1.6-.877-.151-.129-.279-.269-.203-.492.716-2.065.939-4.16.41-6.305-.109-.435-.322-.912.329-1.133v-.013c.159-.083.29-.013.422.066.821 1.376 1.604 2.769 1.814 4.397l-.35 1.953Z"/><path fill="#E26048" d="M46.376 36.678a26.275 26.275 0 0 0-1.924-4.32c.261-.642.507-1.293.866-1.891.764.484 1.13 1.359 1.846 1.888a27 27 0 0 1-.788 4.323Z"/><path fill="#4C7F8B" d="m45.322 40.955.425.288c-.04.744.236 1.45.273 2.185-.357-.19-.463.157-.637.317-.267.242-.487.561-.941.173-.102 1.25-.194 2.401-.293 3.551-.028.325-.133.616-.448.78-.21.101-.31.004-.352-.195-.177-1.433.047-2.865.016-4.298-.006-.263.001-.531.2-.743l.338-.006c.48-.3.465-.795.524-1.274.084-.677.285-.836.897-.776l-.002-.002Z"/><path fill="#E9EBF0" d="M49.982 32.632c-.004.607-.312 1.058-.741 1.448-.355.099-.628.081-.578-.402.436-1.008.56-1.106 1.32-1.046Z"/><path fill="#505365" d="M49.982 32.631c-.71.006-.941.62-1.32 1.047l-.055.016-.057-.005c.259-.62.381-1.336 1.146-1.593.058.198.076.419.286.537v-.002Z"/><path fill="#192653" d="M43.43 48.091c.09.051.18.104.272.155.083.232.434.251.44.546-.323.177-.603-.069-.907-.089-.206-.045-.406-.112-.614-.149a8.004 8.004 0 0 0-.85-.168c-.673 0-1.278-.414-1.967-.32-.896.046-1.74.367-2.618.504-.167.026-.313.057-.459-.042 1.08-.826 2.27-1.468 3.484-2.068.33-.097.597.086.882.197.204.11.413.213.623.314.344.194.712.343 1.04.566.222.188.56.235.676.553l-.003.001Z"/><path fill="#758D88" d="m43.277 48.544.864.25c.03 1.522.044 3.043-.416 4.52-.262-.106-.528-.205-.728-.418.035-1.455.03-2.912.28-4.352Z"/><path fill="#F5C17D" d="M39.8 48.067c.696-.196 1.355.022 2.02.175.158.156.285.336.309.559.096.91.13 1.826-.024 2.732-.064.381-.252.7-.747.51l-1.15-.475c.005-1.05-.03-2.101.03-3.148.027-.452-.266-.273-.439-.353h.002Z"/><path fill="#CEA978" d="M41.36 52.041c.602-.013.592-.491.595-.872.009-.977.105-1.96-.134-2.927.31-.058.582.082.865.162.286.336.168.74.18 1.118.023.75.083 1.502.022 2.252-.031.375-.041.83-.647.705-.317-.1-.626-.217-.883-.436l.002-.002Z"/><path fill="#A59F84" d="M42.242 52.478c.425-.05.457-.348.454-.69-.008-1.127-.007-2.255-.01-3.384l.59.14c.385.656-.075 1.305-.015 1.968.072.8.054 1.615-.265 2.385-.269-.11-.543-.208-.755-.418l.002-.001Z"/><path fill="#E4CA95" d="M44.14 32.229c-.34.273-.296.59-.17.967.665 1.998.255 3.983-.12 5.964-.047.255-.157.51-.428.636-.393.201-.63-.05-.871-.296-.146-.145-.29-.29-.437-.434-.106-1.913.174-3.815.158-5.727-.005-.537-.102-1.002-.45-1.41.79-.024 1.543.22 2.32.301l-.002-.001Z"/><path fill="#F79558" d="m47.35 25.667-.728-1.892c-.172-.316-.455-.307-.756-.26-2.006.31-3.76 1.327-5.629 2.016-.001 1.59-.003 3.179-.006 4.767l.975.344c.47.29.956.543 1.485.71.2.071.258-.087.294-.212.19-.655.574-1.19 1.022-1.687-.187-.283-.095-.488.09-.768.571-.87 1.209-1.672 1.985-2.36.082-.02.164-.044.246-.061.38-.13.726-.32 1.021-.597Z"/><path fill="#F4754D" d="M42.692 31.35c.215-.471.406-.954.654-1.407.133-.242.333-.474.663-.49.561.178.979.54 1.31 1.014-.09.721-.308 1.384-.865 1.892l-.311-.143c-.37-.48-1.034-.466-1.451-.866Z"/><path fill="#E8B16C" d="m41.07 46.794-.862-.332.019-3.786 1.156.016c.283.166.356.44.363.738.02.864.053 1.73-.019 2.59-.03.367-.004.887-.656.773v.001Z"/><path fill="#709389" d="M43.43 48.092c-.262-.116-.532-.22-.732-.437-.131-1.194-.076-2.395-.09-3.592-.005-.39-.179-.818.086-1.198l.872.146c-.044 1.073.09 2.146-.115 3.22-.08.422.069.886.105 1.33.016.189.057.388-.127.53Z"/><path fill="#889285" d="M45.322 40.955c-.601-.013-.708.403-.727.867-.013.316-.019.623-.14.923-.11.267-.264.395-.552.262-.176-.305-.573-.315-.777-.582.067-.633.262-1.246.267-1.89.001-.187-.002-.452.318-.448.53.305 1.128.479 1.611.87v-.002Z"/><path fill="#BEA47D" d="M43.712 40.084c-.295.572-.05 1.224-.271 1.817-.078.206-.094.414-.316.522a3.507 3.507 0 0 1-1.047-.566c.369-.061.31-.344.33-.604.042-.584-.135-1.187.141-1.753.29.1.58.197.871.296.098.097.194.193.292.288Z"/><path fill="#C2A779" d="M42.692 42.865c-.242-.044-.464-.191-.725-.136-.196-.013-.392-.024-.586-.038.3 1.216.117 2.447.108 3.672-.001.218-.159.405-.418.43.163.167.373.239.592.291l1.035.571c.292-1.597.089-3.193-.005-4.79h-.001Z"/></g><defs><linearGradient id="a" x1="40.191" x2="40.191" y1="0" y2="68.762" gradientUnits="userSpaceOnUse"><stop stop-color="#73CEFC"/><stop offset="1" stop-color="#1B2C62"/></linearGradient><linearGradient id="c" x1="55.973" x2="66.608" y1="24.688" y2="34.937" gradientUnits="userSpaceOnUse"><stop stop-color="#FAB756"/><stop offset="1" stop-color="#FAB756"/></linearGradient><linearGradient id="d" x1="66.885" x2="70.746" y1="36.117" y2="39.836" gradientUnits="userSpaceOnUse"><stop stop-color="#6A9A99"/><stop offset=".99" stop-color="#2D609E"/></linearGradient><clipPath id="b"><path fill="#fff" d="M0 11h80.299v70H0z"/></clipPath></defs></svg>